<?xml version="1.0" encoding="UTF-8"?>
<!DOCTYPE svg PUBLIC "-//W3C//DTD SVG 1.1//EN" "http://www.w3.org/Graphics/SVG/1.1/DTD/svg11.dtd">
<svg xmlns="http://www.w3.org/2000/svg" version="1.1" width="100px" height="100px" style="shape-rendering:geometricPrecision; text-rendering:geometricPrecision; image-rendering:optimizeQuality; fill-rule:evenodd; clip-rule:evenodd" xmlns:xlink="http://www.w3.org/1999/xlink">
<g><path style="opacity:1" fill="#eeefee" d="M -0.5,-0.5 C 26.8333,-0.5 54.1667,-0.5 81.5,-0.5C 81.3893,0.117425 81.056,0.617425 80.5,1C 82.5979,0.0155202 84.5979,0.348853 86.5,2C 85.552,2.48278 84.552,2.64945 83.5,2.5C 83.1667,4.5 82.8333,6.5 82.5,8.5C 79.4762,7.57289 76.6429,8.23955 74,10.5C 73.51,9.20677 73.3433,7.87344 73.5,6.5C 72.5,6.5 71.5,6.5 70.5,6.5C 70.5,8.83333 70.5,11.1667 70.5,13.5C 68.712,13.2148 67.0453,13.5481 65.5,14.5C 65.7093,15.086 66.0426,15.586 66.5,16C 65.244,16.4169 64.5774,17.2502 64.5,18.5C 59.8205,20.5636 55.1538,22.7303 50.5,25C 49.1772,25.8159 48.5106,26.9826 48.5,28.5C 47.5386,30.2646 47.2053,32.2646 47.5,34.5C 44.6851,35.1264 42.1851,36.4598 40,38.5C 39.8019,36.6183 39.3019,34.9516 38.5,33.5C 38.1351,30.2544 39.1351,27.5877 41.5,25.5C 36.8775,24.8969 32.5441,23.5635 28.5,21.5C 24.5558,21.6364 21.2225,22.9697 18.5,25.5C 16.124,26.512 15.124,28.3454 15.5,31C 16.8746,34.8704 18.8746,38.3704 21.5,41.5C 19.9681,50.3232 19.3014,59.3232 19.5,68.5C 18.5128,73.3054 18.1795,78.3054 18.5,83.5C 18.5,86.1667 18.5,88.8333 18.5,91.5C 17.1667,91.5 15.8333,91.5 14.5,91.5C 14.2322,93.099 14.5655,94.4324 15.5,95.5C 15.8333,96.8333 16.1667,98.1667 16.5,99.5C 10.8333,99.5 5.16667,99.5 -0.5,99.5C -0.5,66.1667 -0.5,32.8333 -0.5,-0.5 Z"/></g>
<g><path style="opacity:1" fill="#eeeeed" d="M 81.5,-0.5 C 87.5,-0.5 93.5,-0.5 99.5,-0.5C 99.5,32.8333 99.5,66.1667 99.5,99.5C 83.5,99.5 67.5,99.5 51.5,99.5C 51.5245,95.5638 50.1912,92.2305 47.5,89.5C 47.1109,82.6611 46.4442,75.9944 45.5,69.5C 45.1924,67.076 45.5258,64.7427 46.5,62.5C 49.1444,61.7049 51.8111,61.0382 54.5,60.5C 55.5,60.5 56.5,60.5 57.5,60.5C 57.4021,62.5529 58.0687,64.2196 59.5,65.5C 61.8415,67.9675 64.5082,68.1342 67.5,66C 69.0637,63.0292 70.7304,60.1959 72.5,57.5C 74.1361,56.2511 75.3028,54.5844 76,52.5C 78,41.8333 80,31.1667 82,20.5C 82.5,18.6667 83.6667,17.5 85.5,17C 88.0356,16.8138 90.369,16.3138 92.5,15.5C 92.3404,13.847 91.6737,12.5137 90.5,11.5C 89.2392,8.90129 87.5725,6.56796 85.5,4.5C 84.5937,6.38642 83.5937,8.21975 82.5,10C 81.2068,10.49 79.8734,10.6567 78.5,10.5C 75.6298,11.4333 73.2964,13.1 71.5,15.5C 69.0462,16.2271 66.7128,17.2271 64.5,18.5C 64.5774,17.2502 65.244,16.4169 66.5,16C 66.0426,15.586 65.7093,15.086 65.5,14.5C 67.0453,13.5481 68.712,13.2148 70.5,13.5C 70.5,11.1667 70.5,8.83333 70.5,6.5C 71.5,6.5 72.5,6.5 73.5,6.5C 73.3433,7.87344 73.51,9.20677 74,10.5C 76.6429,8.23955 79.4762,7.57289 82.5,8.5C 82.8333,6.5 83.1667,4.5 83.5,2.5C 84.552,2.64945 85.552,2.48278 86.5,2C 84.5979,0.348853 82.5979,0.0155202 80.5,1C 81.056,0.617425 81.3893,0.117425 81.5,-0.5 Z"/></g>
<g><path style="opacity:1" fill="#b93c2f" d="M 90.5,11.5 C 86.3715,10.1976 82.3715,10.5309 78.5,12.5C 78.5,11.8333 78.5,11.1667 78.5,10.5C 79.8734,10.6567 81.2068,10.49 82.5,10C 83.5937,8.21975 84.5937,6.38642 85.5,4.5C 87.5725,6.56796 89.2392,8.90129 90.5,11.5 Z"/></g>
<g><path style="opacity:1" fill="#ae3d3b" d="M 90.5,11.5 C 91.6737,12.5137 92.3404,13.847 92.5,15.5C 89.4648,14.2665 86.4648,14.2665 83.5,15.5C 85.8333,14.1667 88.1667,12.8333 90.5,11.5 Z"/></g>
<g><path style="opacity:1" fill="#d08a85" d="M 78.5,10.5 C 78.5,11.1667 78.5,11.8333 78.5,12.5C 76.8333,13.8333 75.1667,15.1667 73.5,16.5C 73.1583,15.6618 72.4916,15.3284 71.5,15.5C 73.2964,13.1 75.6298,11.4333 78.5,10.5 Z"/></g>
<g><path style="opacity:1" fill="#f7c8c4" d="M 71.5,15.5 C 72.4916,15.3284 73.1583,15.6618 73.5,16.5C 65.6777,21.735 57.6777,26.4016 49.5,30.5C 49.8588,28.629 50.8588,27.129 52.5,26C 59.423,23.3257 65.7564,19.8257 71.5,15.5 Z"/></g>
<g><path style="opacity:1" fill="#9c4e4c" d="M 71.5,15.5 C 65.7564,19.8257 59.423,23.3257 52.5,26C 50.8588,27.129 49.8588,28.629 49.5,30.5C 48.6618,30.1583 48.3284,29.4916 48.5,28.5C 48.5106,26.9826 49.1772,25.8159 50.5,25C 55.1538,22.7303 59.8205,20.5636 64.5,18.5C 66.7128,17.2271 69.0462,16.2271 71.5,15.5 Z"/></g>
<g><path style="opacity:1" fill="#c7382a" d="M 90.5,11.5 C 88.1667,12.8333 85.8333,14.1667 83.5,15.5C 75.4814,19.171 68.148,23.8377 61.5,29.5C 62.9501,30.8498 63.6168,32.5165 63.5,34.5C 62.5416,34.9528 61.7083,35.6195 61,36.5C 59.7996,41.4762 57.633,45.9762 54.5,50C 48.9171,50.1911 43.4171,50.6911 38,51.5C 35.9267,49.8352 33.7601,48.3352 31.5,47C 33.7173,45.7316 35.7173,44.2316 37.5,42.5C 36.2713,41.7189 34.938,41.2189 33.5,41C 34.3079,39.2942 35.6412,38.4609 37.5,38.5C 37.5,37.1667 37.5,35.8333 37.5,34.5C 36.448,34.6495 35.448,34.4828 34.5,34C 35.5536,32.6124 35.7203,31.1124 35,29.5C 32.7711,32.1562 30.9378,31.8229 29.5,28.5C 34.8333,27.1667 34.8333,25.8333 29.5,24.5C 28.6667,24.1667 27.8333,23.8333 27,23.5C 24.2687,24.6166 21.4353,25.2833 18.5,25.5C 21.2225,22.9697 24.5558,21.6364 28.5,21.5C 32.5441,23.5635 36.8775,24.8969 41.5,25.5C 39.1351,27.5877 38.1351,30.2544 38.5,33.5C 38.5,36.8333 38.5,40.1667 38.5,43.5C 37.8592,44.4822 37.1925,45.4822 36.5,46.5C 39.4973,47.2482 42.4973,47.9149 45.5,48.5C 48.7481,47.3546 52.0815,46.5213 55.5,46C 57.2268,43.0964 57.8935,39.9297 57.5,36.5C 54.6405,36.9158 52.4738,35.9158 51,33.5C 50.0979,33.7432 49.2646,34.0766 48.5,34.5C 48.1667,34.5 47.8333,34.5 47.5,34.5C 47.2053,32.2646 47.5386,30.2646 48.5,28.5C 48.3284,29.4916 48.6618,30.1583 49.5,30.5C 57.6777,26.4016 65.6777,21.735 73.5,16.5C 75.1667,15.1667 76.8333,13.8333 78.5,12.5C 82.3715,10.5309 86.3715,10.1976 90.5,11.5 Z"/></g>
<g><path style="opacity:1" fill="#ae5851" d="M 38.5,33.5 C 39.3019,34.9516 39.8019,36.6183 40,38.5C 42.1851,36.4598 44.6851,35.1264 47.5,34.5C 47.8333,34.5 48.1667,34.5 48.5,34.5C 46.5396,37.1545 43.873,38.8211 40.5,39.5C 39.8281,40.9492 39.1614,42.2825 38.5,43.5C 38.5,40.1667 38.5,36.8333 38.5,33.5 Z"/></g>
<g><path style="opacity:1" fill="#ede4e1" d="M 92.5,15.5 C 90.369,16.3138 88.0356,16.8138 85.5,17C 83.6667,17.5 82.5,18.6667 82,20.5C 80,31.1667 78,41.8333 76,52.5C 75.3028,54.5844 74.1361,56.2511 72.5,57.5C 71.1932,58.1534 69.8599,58.8201 68.5,59.5C 67.265,58.6602 66.265,57.6602 65.5,56.5C 66.4302,50.8691 68.4302,45.7025 71.5,41C 69.4502,38.133 66.7835,35.9664 63.5,34.5C 63.6168,32.5165 62.9501,30.8498 61.5,29.5C 68.148,23.8377 75.4814,19.171 83.5,15.5C 86.4648,14.2665 89.4648,14.2665 92.5,15.5 Z"/></g>
<g><path style="opacity:1" fill="#f2e6e6" d="M 38.5,43.5 C 39.1614,42.2825 39.8281,40.9492 40.5,39.5C 43.873,38.8211 46.5396,37.1545 48.5,34.5C 49.2646,34.0766 50.0979,33.7432 51,33.5C 52.4738,35.9158 54.6405,36.9158 57.5,36.5C 57.8935,39.9297 57.2268,43.0964 55.5,46C 52.0815,46.5213 48.7481,47.3546 45.5,48.5C 42.4973,47.9149 39.4973,47.2482 36.5,46.5C 37.1925,45.4822 37.8592,44.4822 38.5,43.5 Z"/></g>
<g><path style="opacity:1" fill="#d33320" d="M 63.5,34.5 C 66.7835,35.9664 69.4502,38.133 71.5,41C 68.4302,45.7025 66.4302,50.8691 65.5,56.5C 63.0462,57.2271 60.7128,58.2271 58.5,59.5C 57.1667,59.5 55.8333,59.5 54.5,59.5C 51.1869,60.0448 47.8536,60.5448 44.5,61C 44.0426,61.414 43.7093,61.914 43.5,62.5C 44.3074,71.786 44.8074,81.1193 45,90.5C 46.6044,93.247 47.4378,96.247 47.5,99.5C 37.1667,99.5 26.8333,99.5 16.5,99.5C 16.1667,98.1667 15.8333,96.8333 15.5,95.5C 15.5,94.5 15.5,93.5 15.5,92.5C 16.8333,92.5 18.1667,92.5 19.5,92.5C 19.5,89.5 19.5,86.5 19.5,83.5C 20.1098,82.609 20.4431,81.609 20.5,80.5C 19.998,69.1508 20.6647,57.9841 22.5,47C 22.4944,44.9674 22.1611,43.134 21.5,41.5C 18.8746,38.3704 16.8746,34.8704 15.5,31C 15.124,28.3454 16.124,26.512 18.5,25.5C 21.4353,25.2833 24.2687,24.6166 27,23.5C 27.8333,23.8333 28.6667,24.1667 29.5,24.5C 34.8333,25.8333 34.8333,27.1667 29.5,28.5C 30.9378,31.8229 32.7711,32.1562 35,29.5C 35.7203,31.1124 35.5536,32.6124 34.5,34C 35.448,34.4828 36.448,34.6495 37.5,34.5C 37.5,35.8333 37.5,37.1667 37.5,38.5C 35.6412,38.4609 34.3079,39.2942 33.5,41C 34.938,41.2189 36.2713,41.7189 37.5,42.5C 35.7173,44.2316 33.7173,45.7316 31.5,47C 33.7601,48.3352 35.9267,49.8352 38,51.5C 43.4171,50.6911 48.9171,50.1911 54.5,50C 57.633,45.9762 59.7996,41.4762 61,36.5C 61.7083,35.6195 62.5416,34.9528 63.5,34.5 Z"/></g>
<g><path style="opacity:1" fill="#b54c41" d="M 21.5,41.5 C 22.1611,43.134 22.4944,44.9674 22.5,47C 20.6647,57.9841 19.998,69.1508 20.5,80.5C 19.5166,76.7016 19.1832,72.7016 19.5,68.5C 19.3014,59.3232 19.9681,50.3232 21.5,41.5 Z"/></g>
<g><path style="opacity:1" fill="#f2e8e4" d="M 65.5,56.5 C 65.244,58.9124 66.244,60.5791 68.5,61.5C 66.7977,65.8526 63.7977,67.1859 59.5,65.5C 59.4828,63.4352 59.1495,61.4352 58.5,59.5C 60.7128,58.2271 63.0462,57.2271 65.5,56.5 Z"/></g>
<g><path style="opacity:1" fill="#a9797e" d="M 65.5,56.5 C 66.265,57.6602 67.265,58.6602 68.5,59.5C 69.8599,58.8201 71.1932,58.1534 72.5,57.5C 70.7304,60.1959 69.0637,63.0292 67.5,66C 64.5082,68.1342 61.8415,67.9675 59.5,65.5C 63.7977,67.1859 66.7977,65.8526 68.5,61.5C 66.244,60.5791 65.244,58.9124 65.5,56.5 Z"/></g>
<g><path style="opacity:1" fill="#b57d7d" d="M 54.5,60.5 C 54.5,60.1667 54.5,59.8333 54.5,59.5C 55.8333,59.5 57.1667,59.5 58.5,59.5C 59.1495,61.4352 59.4828,63.4352 59.5,65.5C 58.0687,64.2196 57.4021,62.5529 57.5,60.5C 56.5,60.5 55.5,60.5 54.5,60.5 Z"/></g>
<g><path style="opacity:1" fill="#b5584b" d="M 45.5,69.5 C 46.4442,75.9944 47.1109,82.6611 47.5,89.5C 46.71,88.3915 46.21,87.0581 46,85.5C 45.5006,80.1771 45.334,74.8437 45.5,69.5 Z"/></g>
<g><path style="opacity:1" fill="#e9b4ae" d="M 19.5,68.5 C 19.1832,72.7016 19.5166,76.7016 20.5,80.5C 20.4431,81.609 20.1098,82.609 19.5,83.5C 19.1667,83.5 18.8333,83.5 18.5,83.5C 18.1795,78.3054 18.5128,73.3054 19.5,68.5 Z"/></g>
<g><path style="opacity:1" fill="#b5504a" d="M 18.5,83.5 C 18.8333,83.5 19.1667,83.5 19.5,83.5C 19.5,86.5 19.5,89.5 19.5,92.5C 18.1667,92.5 16.8333,92.5 15.5,92.5C 15.5,93.5 15.5,94.5 15.5,95.5C 14.5655,94.4324 14.2322,93.099 14.5,91.5C 15.8333,91.5 17.1667,91.5 18.5,91.5C 18.5,88.8333 18.5,86.1667 18.5,83.5 Z"/></g>
<g><path style="opacity:1" fill="#c43a2b" d="M 54.5,59.5 C 54.5,59.8333 54.5,60.1667 54.5,60.5C 51.8111,61.0382 49.1444,61.7049 46.5,62.5C 45.5258,64.7427 45.1924,67.076 45.5,69.5C 45.334,74.8437 45.5006,80.1771 46,85.5C 46.21,87.0581 46.71,88.3915 47.5,89.5C 50.1912,92.2305 51.5245,95.5638 51.5,99.5C 50.1667,99.5 48.8333,99.5 47.5,99.5C 47.4378,96.247 46.6044,93.247 45,90.5C 44.8074,81.1193 44.3074,71.786 43.5,62.5C 43.7093,61.914 44.0426,61.414 44.5,61C 47.8536,60.5448 51.1869,60.0448 54.5,59.5 Z"/></g>
</svg>
