<?xml version="1.0" standalone="yes"?>
<svg xmlns="http://www.w3.org/2000/svg" width="640" height="640">
<path style="fill:#efefee; stroke:none;" d="M0 0L0 640L108 640C105.909 625.851 90.6717 611.671 93.0988 598C94.0305 592.752 96.1102 585.635 102.004 584.167C110.425 582.071 119.256 591.752 122.446 578.999C124.775 569.69 116.952 562.866 117.377 554C117.645 548.396 119.253 541.828 122.13 537C124.332 533.304 128.912 529.507 129.23 525C129.496 521.224 126.516 517.769 126.107 514C124.703 501.051 124.165 487.98 122.895 475C122.346 469.387 119.717 464.86 120.043 459C120.676 447.631 127.105 436.691 127.91 425C129.6 400.462 124.852 375.635 128.428 351C130.648 335.708 140.599 321.748 140.985 306C141.215 296.651 142.745 282.786 140.011 274C137.836 267.009 132.324 263.675 128.329 257.985C125.978 254.636 125.279 250.534 123.009 247.17C114.973 235.258 96.8431 221.055 99.8503 205C108.42 159.247 146.21 142.245 189 138.17C203.753 136.765 209.22 149.286 222 154.085C234.118 158.635 247.439 155.376 260 155.714C265.311 155.856 272.101 157.908 273.137 164.004C275.329 176.889 254.027 179.693 249.473 188.379C242.026 202.583 255.906 216.026 259.347 228C260.612 232.401 253.159 243.46 260.059 244.353C267.884 245.365 280.968 232.987 286.17 228.019C291.391 223.031 299.797 224.596 303.57 217.711C307.565 210.421 304.978 201.759 306.329 194C308.302 182.664 315.621 172.644 324 165.174C341.938 149.18 367.911 143.179 389 132.877C408.832 123.19 430.051 114.849 449 103.547C466.048 93.3789 480.872 78.9464 499.09 70.7462C503.071 68.954 508.54 66.1715 513 66.412C516.956 66.6254 519.912 70.4077 523.985 68.625C534.086 64.205 538.983 49.9639 539 40C539.007 35.9334 537.933 26.9126 544.044 26.5957C551.109 26.2293 557.642 36.157 561.651 40.7145C574.977 55.8667 586.828 72.1151 594.417 91C596.03 95.0161 597.924 104.509 591.891 106.044C587.209 107.235 580.7 101.522 576 100.518C563.55 97.8577 533.302 101.302 529.255 116.001C526.38 126.441 527.12 138.222 524.999 149C514.53 202.207 508.381 256.593 494.605 309C491.028 322.608 490.015 336.865 484.505 350C479.32 362.364 469.02 379.643 460.471 389.91C457.461 393.524 452.932 395.385 450.104 399.129C444.721 406.256 442.708 415.219 436.699 421.961C421.066 439.499 390.484 445.864 378.185 420C375.193 413.706 372.834 390.623 364.985 390.333C355.514 389.982 344.785 395.589 336 398.481C327.849 401.164 319.35 402.027 311 403.789C306.302 404.781 296.905 404.403 294.269 409.278C291.057 415.217 297.324 420.716 298.383 426C299.05 429.328 297.074 432.623 297.213 436C297.477 442.421 299.902 448.638 300.715 455C303.207 474.518 303.822 493.328 302.961 513C302.679 519.427 299.647 526.68 300.318 532.985C300.835 537.845 305.378 540.906 305.895 546C306.649 553.424 304.852 561.879 306.279 569C307.8 576.587 315.666 582.713 319.758 589C325.997 598.585 328.881 609.12 332 620C333.4 624.884 333.98 635.93 338.433 638.972C343.267 642.276 355.296 640 361 640L419 640L640 640L640 0L0 0z"/>
<path style="fill:#dba3a1; stroke:none;" d="M108 640L112 640C109.339 632.198 106.003 623.304 102.175 616C99.4736 610.846 94.8836 607.294 95.4684 601C95.9577 595.734 97.3717 586.919 104.015 586.515C109.774 586.164 117.893 592.796 122.143 586.851C130.884 574.624 117.546 563.779 119.468 552C121.082 542.102 131.981 533.724 132.472 525C132.727 520.466 128.345 516.545 127.72 512C126.141 500.527 127.149 488.46 125.815 477C125.094 470.81 121.58 465.406 122.108 459C123.072 447.292 129.425 436.152 129.961 424C131.024 399.892 126.304 375.085 130.326 351C132.645 337.112 140.382 323.927 143.331 310C145.268 300.852 143.945 288.434 143.817 279C143.685 269.24 135.784 263.769 130.279 256.985C123.58 248.733 119.195 237.092 113.006 228.104C109.189 222.561 103.347 220.438 102.213 213C97.803 184.086 124.354 157.921 149 148.877C161.499 144.29 185.889 136.575 198.996 141.188C203.772 142.868 206.322 147.63 210.015 150.775C215.125 155.129 223.31 158.417 230 158.91C238.643 159.547 266.991 152.885 270.338 164.044C273.705 175.271 249.765 180.089 246.349 188.043C239.478 204.042 254.015 215.66 257.304 229C258.316 233.107 248.556 247.314 258.109 247.722C264.584 247.999 271.722 241.563 277 238.498C281.954 235.622 285.293 230.415 290.09 227.809C296.084 224.551 301.747 226.517 305.836 218.985C310.049 211.226 307.27 204.921 308.304 197C309.79 185.625 316.23 174.843 325.001 167.616C352.506 144.95 391.437 135.509 423 119.73C450.145 106.159 473.556 84.5391 501 72.3488C504.366 70.8535 510.27 68.0705 513.985 68.9514C517.802 69.8563 519.72 74.6688 524.011 72.3526C531.256 68.4418 539.431 57.1285 540.776 49C541.488 44.6957 538.618 32.5048 543.318 30.1605C549.337 27.158 557.196 39.0113 560.269 42.5756C570.985 55.0045 580.023 67.4689 587.614 82C590.001 86.5682 594.628 94.5367 593.589 99.8873C592.28 106.622 575.739 97.438 571 97.0903C553.014 95.7706 526.899 102.11 526 123L525 123C524.938 105.56 503.298 122.737 495 127.424C471.23 140.853 447.865 154.73 425 169.656C418.15 174.128 403.91 179.741 400.042 187.105C396.171 194.476 406.436 203.371 409.634 209C413.437 215.693 412.595 226.005 418.394 231.363C427.74 239.999 442.626 243.939 453 251.664C456.462 254.242 462.347 257.296 463.019 262.015C464.184 270.202 454.362 280.264 450.782 287C443.285 301.102 438.743 315.624 432.208 330C429.004 337.047 422.087 347.167 422.268 355C422.457 363.186 430.246 382.757 439.015 384.502C446.983 386.088 455.447 379.99 460.961 374.871C467.932 368.4 471.842 359.256 479 353C475.413 363.682 465.924 380.36 458.523 388.921C455.647 392.249 451.328 393.363 448.69 397.019C438.551 411.068 434.183 429.548 415 434.736C395.934 439.893 380.765 424.755 375.736 408C374.351 403.386 374.36 390.829 370.523 387.889C366.438 384.758 356.383 389.336 352 390.454C338.169 393.981 325.093 398.388 311 401.199C305.606 402.275 296.631 402.221 292.222 405.755C286.788 410.111 293.788 420.319 295.245 425C296.421 428.777 293.835 432.17 294.296 436C295.48 445.832 297.928 456.271 299.801 466C302.826 481.712 302.43 499.097 300.866 515C300.264 521.111 296.529 528.979 297.477 534.982C298.131 539.121 302.836 540.866 303.782 545C305.786 553.757 301.296 564.858 305.046 573C309.761 583.234 318.926 590.468 323.713 601C327.578 609.505 330.214 619.897 332.356 629C333.34 633.179 333.366 638.646 338 640C332.741 625.684 331.248 609.722 324.392 596C319.83 586.869 308.093 577.953 306.293 568C304.925 560.43 307.043 551.88 305.786 544.004C305.064 539.476 300.687 536.562 300.528 531.996C299.784 510.72 305.521 489.635 302.711 468C301.37 457.68 298.379 447.321 297.471 437C297.139 433.222 299.233 429.722 298.678 426C297.757 419.826 288.79 411.311 298.048 406.804C305.78 403.04 316.601 403.062 325 401.537C333.708 399.956 341.53 396.147 350 393.885C354.236 392.754 362.741 389.161 366.891 391.121C373.001 394.006 373.092 408.207 375.319 414C382.86 433.614 405.715 445.562 425 433.034C438.787 424.078 441.193 410.98 450.789 399.129C453.505 395.774 457.641 394.088 460.471 390.826C464.216 386.508 465.864 380.794 468.876 376C473.96 367.907 480.799 359.837 484.505 351C490.015 337.865 491.028 323.608 494.605 310C508.381 257.593 514.53 203.207 524.999 150C527.121 139.217 526.391 127.449 529.255 117C533.273 102.338 562.316 97.8075 575 100.518C580.136 101.615 587.604 108.264 592.772 106.214C599.826 103.417 594.658 90.4242 592.626 86C590.765 81.9485 588.785 77.9423 586.702 74C579.602 60.5599 569.662 49.6141 560.115 37.9606C556.459 33.4973 550.55 26.1005 544.044 26.2816C537.567 26.462 539.02 35.7039 538.999 40C538.954 49.2392 533.186 65.3981 522.996 68.3804C519.602 69.3738 516.418 66.2995 513 66.2021C508.624 66.0775 504.004 68.3432 500.039 69.9614C481.788 77.41 466.42 91.6982 450 102.301C436.223 111.197 419.907 117.846 405 124.691C378.872 136.689 344.734 145.772 323 165.174C315.007 172.309 308.205 182.223 306.329 193C304.964 200.838 307.489 209.42 303.57 216.829C299.583 224.368 290.757 222.657 285.285 228.019C280.175 233.026 268.586 243.695 261.023 243.917C254.217 244.117 260.649 231.333 259.351 227C255.581 214.414 244.014 204.755 249.202 189.819C252.657 179.875 278.857 176.803 272.975 162.043C268.232 150.139 241.035 156.894 231 155.924C217.059 154.578 212.353 143.494 200.996 138.858C186.885 133.097 158.447 142.187 145 147.464C122.766 156.189 109.102 171.13 103.076 194C101.075 201.592 98.5092 206.949 100.26 215C101.875 222.426 107.282 225.247 111.105 231.043C117.093 240.122 122.055 250.229 128.329 258.96C133.125 265.633 140.334 269.818 140.736 279C141.216 289.962 142.375 303.223 139.761 314C136.757 326.386 129.843 338.371 128.286 351C125.287 375.333 129.576 399.814 127.91 424C127.121 435.459 121.192 445.889 120.105 457C119.449 463.711 121.827 468.639 122.787 475C125.142 490.615 127.825 508.525 128.721 524C128.982 528.511 124.271 532.406 122.13 536C119.311 540.731 118.144 546.594 117.432 552C116.275 560.795 123.486 567.43 122.772 576C121.198 594.887 103.318 576.382 96.0856 588.044C85.2115 605.578 104.04 622.932 108 640z"/>
<path style="fill:#c47571; stroke:none;" d="M114 640C112.288 632.693 107.778 622.714 104.239 616C101.61 611.012 96.7716 607.083 97.3086 601C97.4844 599.009 97.9339 596.931 98.4437 595.001C102.37 580.132 117.752 598.524 123.836 587.941C131.51 574.591 119.759 564.629 121.432 552C122.812 541.581 132.892 535.305 134.127 526C134.825 520.745 130.219 516.91 129.358 512C127.405 500.858 128.709 488.309 127.88 477C127.45 471.135 123.438 466.058 123.815 460C124.523 448.605 130.445 437.782 130.961 426C131.996 402.349 127.903 378.657 131.59 355C133.851 340.493 141.099 327.339 144.32 313C146.593 302.884 145.986 288.195 145.49 278C145.006 268.042 136.934 262.823 131.499 255.907C124.698 247.252 120.492 235.348 114.006 226.129C110.561 221.232 105.411 219.515 104.178 213C98.7483 184.308 126.008 159.282 150 150.544C162.301 146.064 184.967 138.723 198 142.832C203.175 144.463 205.347 149.981 209.325 153.147C214.795 157.5 224.069 160.903 231 160.996C240.464 161.124 250.724 159.247 260 160.579C262.981 161.008 268.357 161.185 268.94 165.108C270.408 174.983 247.572 179.469 244.198 187.104C242.878 190.093 244.523 193.93 244.829 197C245.437 203.085 244.263 209.194 246.728 215C248.819 219.923 253.956 223.952 255.343 229C256.436 232.98 252.761 236.199 252.267 240C251.779 243.76 253.092 250.662 258.044 250.298C270.587 249.375 280.358 235.877 290 229.927C296.102 226.161 303.421 228.75 307.49 219.985C311.276 211.828 309.381 205.337 310.177 197C311.149 186.828 316.661 177.637 324.039 170.845C350.414 146.565 391.59 138.118 423 122.019C434.96 115.889 447.868 109.815 459 102.255C467.337 96.5936 475.55 88.5132 485 85C479.034 96.7763 459.155 105.736 448 112.15C416.292 130.381 383.137 144.924 351 162.309C340.227 168.136 327.958 173.787 321.901 185C319.855 188.789 317.297 195.598 320.028 199.682C322.65 203.605 328.102 201.163 330.741 198.656C342.048 187.909 350.659 177.554 364 168.975C370.792 164.608 376.747 172.078 384 168.722C415.631 154.088 447.62 130.566 475 109.182C484.378 101.858 493.057 94.1339 501.84 86.1157C506.224 82.114 508.742 76.6031 501 76L501 75C504.465 73.4347 509.009 70.1472 512.996 70.9282C516.67 71.6478 518.84 76.5432 522.95 75.1998C538.765 70.03 545.385 46.2175 542 32C550.223 30.0441 555.302 39.7892 560.086 45C573.009 59.0776 591.777 81.8164 592 102C573.454 96.5571 558.787 92.2686 540 101.262C534.285 103.998 528.185 106.722 526 113C516.665 110.267 504.085 119.832 496 124.428C471.194 138.53 447.184 153.703 423 168.807C415.273 173.633 394.731 182.095 397.79 193C399.725 199.896 405.364 204.035 408.622 210.09C412.089 216.533 411.415 224.956 415.703 230.945C420.349 237.435 433.896 242.573 441 246.244C446.683 249.18 463.172 257.109 460.895 265.001C456.586 279.935 444.485 292.666 438.465 307C434.238 317.063 430.324 327.764 426.543 338C424.601 343.257 422.345 352.402 418.412 356.416C412.913 362.028 403.15 369.591 396 373.168C384.771 378.787 375.01 378.059 375 393L374 393C373.427 389.207 372.56 385.017 367.956 384.783C357.881 384.272 346.339 390.862 337 393.907C328.093 396.81 318.175 397.828 309 399.715C303.516 400.842 290.842 400.461 288.697 407.108C286.648 413.454 292.867 420.764 293.775 426.715C294.378 430.662 292.755 434.873 293.289 439C294.899 451.433 298.035 463.555 299.711 476C301.489 489.193 300.315 502.798 298.715 516C297.987 521.999 294.87 528.999 295.515 534.985C296.072 540.162 301.824 541.949 302.772 547.015C304.236 554.843 300.365 563.475 302.51 571C305.175 580.346 314.401 586.506 318.688 595C325.942 609.376 327.767 625.328 334 640L335 640C332.618 623.797 327.176 605.303 319.204 591C315.139 583.707 306.606 578.341 304.43 570C302.547 562.784 304.616 553.577 303.941 546.001C303.491 540.942 298.374 538.747 297.897 533.985C297.33 528.314 300.278 521.706 300.83 516C302.278 501.035 302.653 484.913 300.711 470C299.228 458.617 295.836 447.358 294.618 436C294.213 432.224 296.395 428.788 295.486 425C294.256 419.871 287.499 411.596 292.407 406.513C296.23 402.555 304.902 402.618 310 401.6C324.761 398.653 338.514 394.209 353 390.478C357.259 389.381 366.697 384.999 370.4 388.604C374.205 392.308 374.12 402.955 375.489 408C380.092 424.961 391.878 435.753 410 435.66C435.741 435.527 436.86 407.054 452.053 394.414C462.621 385.623 475.68 366.816 479 353C469.372 358.57 465.419 371.444 456 377.961C451.048 381.387 445.47 385.845 439.015 384.237C430.862 382.206 421.856 361.949 422.514 354C423.159 346.215 429.598 337.162 432.663 330C438.763 315.745 443.435 301.82 450.782 288C454.619 280.781 464.368 270.782 463.421 262.015C462.903 257.229 457.481 254.26 454 251.664C443.416 243.772 429.137 239.784 419.214 231.363C412.707 225.84 413.675 215.112 409.634 208C406.654 202.754 396.301 193.834 400.643 187.105C405.433 179.684 418.681 174.434 426 169.656C448.55 154.936 471.625 141.352 495 128.001C502.854 123.515 524.802 106.262 525 123C526.952 118.94 526.535 113.812 529.514 110.213C537.215 100.908 556.543 96.7856 568 97.0154C573.16 97.119 589.931 105.854 592.971 102.242C596.312 98.2729 591.254 88.8416 589.562 85C582.372 68.6804 571.719 55.1973 560.269 41.7145C557.316 38.2371 548.572 25.6788 542.603 30.0463C538.772 32.8499 541.474 43.7841 540.776 48C539.415 56.2253 531.207 67.4538 524.011 71.5733C519.866 73.9462 517.843 69.2356 513.985 68.5378C509.912 67.801 503.684 70.7124 500 72.3488C472.564 84.5352 449.144 106.16 422 119.73C391.078 135.189 353.418 144.498 326 166.015C316.599 173.392 309.987 184.056 308.3 196C307.224 203.614 309.609 209.486 306.301 216.999C302.232 226.24 295.496 223.528 289.166 227.646C280.077 233.558 271.011 246.25 259.044 247.381C249.044 248.327 258.568 232.154 257.344 228C253.366 214.5 241.439 205.554 246.167 189.428C248.495 181.487 279.032 172.918 269.397 161.419C261.593 152.106 236.971 161.04 226 158.073C214.834 155.053 208.156 142.606 197.999 140.573C187.66 138.502 173.974 142.164 164 144.849C131.665 153.554 107.314 169.498 102.21 205C99.893 221.114 116.1 233.772 124.606 246.004C126.967 249.398 127.109 253.639 129.514 256.985C134.272 263.606 140.969 267.529 143.196 276C145.18 283.55 143.934 295.999 143.921 304C143.896 319.98 132.896 334.609 130.326 350C126.242 374.455 131.611 399.597 129.91 424C129.059 436.212 122.222 448.13 122.019 460C121.909 466.425 125.198 471.766 125.801 478C126.88 489.149 126.079 500.858 127.482 512C128.04 516.426 132.349 520.72 132.017 525C131.672 529.443 126.562 533.448 124.248 537C121.308 541.515 119.678 547.649 119.177 553C118.097 564.552 129.058 572.819 122.686 584.98C117.372 595.121 105.601 580.705 98.9946 588.434C88.9778 600.151 100.406 611.352 104.305 622C106.519 628.046 108.25 636.425 114 640z"/>
<path style="fill:#a8443f; stroke:none;" d="M542 32C544.557 45.772 540.913 57.7447 530.921 67.8303C528.751 70.0211 525.278 74.4732 522.05 74.9406C518.883 75.3993 516.839 71.5168 513.985 70.696C509.623 69.4411 504.496 72.8012 501 75L501 76L507 80L508 80C512.709 72.0155 518.663 81.795 524.714 78.8163C531.208 75.6201 541.505 64.7532 544.107 57.9962C545.778 53.6546 543.213 41.7302 550.019 41.037C554.647 40.5658 558.371 47.7817 561.159 50.5756C571.43 60.868 586.788 79.7587 584 95C561.678 85.161 544.093 96.7924 524.961 106.405C500.393 118.748 475.661 129.948 452.438 144.894C442.901 151.033 428.661 165.414 417 166C412.056 172.204 396.997 179.037 395.028 186.044C391.581 198.31 400.413 202.048 405.334 211.015C408.344 216.499 408.445 223.968 411.742 228.83C420.152 241.235 433.134 244.243 444.91 252.167C449.538 255.28 452.021 260.535 457 263C450.729 279.227 441.202 293.982 434.015 310C427.8 323.85 425.679 341.168 416.911 353.772C412.029 360.791 397.641 368.525 390 372.648C373.377 381.617 352.342 386.108 334 390.263C329.76 391.224 326.395 394.12 322.039 394.863C310.787 396.781 294.493 393.991 288 406C299.703 400.019 313.221 399.102 326 396.551C335.386 394.677 343.799 390.971 353 388.626C362.031 386.324 371.076 380.871 374 393L375 393C375.04 378.893 385.217 378.531 396 373.648C403.033 370.464 414.194 362.251 419.015 356.416C429.601 343.604 432.092 321.945 438.9 307C445.256 293.05 457.338 279.84 461.293 265.001C463.781 255.667 445.339 248.269 439 244.664C432.071 240.722 420.265 236.596 415.703 229.981C411.501 223.888 412.186 215.604 408.622 209.17C405.323 203.214 399.494 198.901 397.809 192C395.52 182.629 417.253 173.021 424 168.807C447.535 154.108 471.11 139.73 495 125.603C503.141 120.79 516.574 110.841 526 113C534.038 97.8683 560.635 93.3862 576 96.3758C581.647 97.4745 586.368 100.984 592 102C591.931 81.8925 574.095 59.0351 561.025 45C556.104 39.7162 550.386 29.1835 542 32z"/>
<path style="fill:#d13623; stroke:none;" d="M367 175C360.342 173.095 358.693 177.494 353.96 181.319C350.577 184.054 346.381 185.713 343.554 189.105C339.337 194.164 336.444 201.298 329.83 204.018C324.662 206.145 318.932 197.951 314.567 201.647C310.436 205.144 311.687 215.559 313 220C322.227 216.973 329.635 213.214 338.985 218.853C343.351 221.487 345.945 226.018 350.997 227.649C362.738 231.44 374.128 228.154 379.987 242.17C382.194 247.451 377.257 255.797 375.884 261C371.337 278.241 371.572 296.196 354 306.435C348.714 309.515 343.525 305.503 338 306.648C323.956 309.559 312.923 315.508 298 315.871C286.732 316.145 275.271 312.197 263.985 312.011C251.781 311.809 234.13 312.715 230.721 297.039C228.577 287.181 249.156 282.306 250.699 272C252.695 258.672 253.427 244.131 250.221 231.015C246.956 217.655 239.034 207.509 241.304 193C242.663 184.316 249.7 179.71 255.981 174.545C258.027 172.862 261.66 169.638 259.914 166.638C257.044 161.71 247.577 163.998 243 164C232.775 164.004 221.228 163.682 212 158.647C204.421 154.512 199.354 146.026 190 145.612C172.067 144.819 149.185 153.477 134 162.304C129.795 164.748 124.723 165.33 121.39 169.109C112.168 179.565 109.046 196.534 108.239 210.039C107.597 220.793 121.618 231.483 126.78 240.001C129.832 245.037 131.061 251.22 134.51 255.996C137.662 260.36 142.667 262.85 144.762 267.989C148.953 278.271 148.048 292.035 147.999 303C147.912 322.553 137.223 340.041 134.31 359.039C130.748 382.274 135.019 405.683 133.961 429C133.485 439.478 128.839 449.553 128.09 460C126.591 480.917 135.99 503.225 135.816 524C135.727 534.631 125.452 542.876 125.194 554C124.952 564.399 130.527 573.179 127.567 583.996C123.878 597.481 103.948 588.434 102.153 601.015C100.344 613.69 114.852 626.717 115 640L330 640C328.538 622.238 318.644 604.258 309.957 589C307.068 583.926 301.218 579.543 299.572 573.961C297.72 567.682 300.435 561.27 299.685 555C298.869 548.173 295.621 541.934 295.086 535C293.259 511.311 296.938 488.31 294.691 464.576C293.497 451.956 291.545 439.488 289.34 427C287.978 419.282 283.142 414.796 287.631 407.039C295.106 394.124 310.758 397.209 323 394.89C344.344 390.847 368.945 382.29 389 373.634C397.106 370.136 411.584 361.492 416.911 354.571C428.311 339.762 432.276 315.187 439.721 298C444.799 286.275 453.991 275.545 457 263C450.228 257.966 445.369 251.491 438 246.839C427.982 240.515 418.916 238.805 411.742 227.91C408.448 222.91 408.449 215.594 405.334 210.039C400.625 201.643 391.678 198.098 395.167 186.44C397.581 178.372 412.602 174.289 417 166C428.905 166.229 443.585 151.001 453.285 144.894C476.749 130.124 501.365 119.065 525.911 106.405C546.015 96.0358 560.727 87.4287 584 95C587.544 80.0732 572.152 60.5698 562.05 50.5756C558.869 47.4286 554.525 39.1697 549.059 40.7122C542.936 42.4399 545.827 52.4995 544.107 56.9992C541.628 63.4818 530.415 76.2588 523.83 78.6913C519.24 80.387 515.158 74.4899 510.225 76.7678C506.421 78.5241 506.088 83.741 503.995 86.9097C500.389 92.3707 493.561 97.4563 488.745 101.961C476.594 113.324 462.553 120.161 449.285 129.658C440.77 135.754 433.376 144.79 424 149.548C412.89 155.186 400.981 163.173 389 167.218C382.657 169.36 370.924 169.402 367 175z"/>
<path style="fill:#a8443f; stroke:none;" d="M499 75L500 76L499 75M495 77L494 79L496 79L495 77z"/>
<path style="fill:#dba3a1; stroke:none;" d="M504 79C488.393 79.8115 474.902 98.3546 461.985 106.139C426.607 127.46 389.181 143.651 353 163.345C342.462 169.081 330.314 174.278 323.931 185C321.962 188.307 319.203 194.808 322.179 198.381C325.657 202.559 330.787 195.299 332.594 192.996C340.956 182.337 353.162 172.074 365 165.631C370.908 162.416 377.212 169.446 384 166.442C394.908 161.615 404.93 153.741 415 147.424C436.161 134.15 457.473 120.705 477 105.091C485.482 98.309 500.343 89.6675 504 79z"/>
<path style="fill:#a8443f; stroke:none;" d="M485 84L485 85L492 80L485 84M505 82C472.966 118.414 425.854 140.712 386 167L386 168C409.873 164.408 431.237 142.85 450.17 129.658C460.708 122.316 472.814 117.358 482.36 108.407C488.118 103.008 507.32 90.4816 505 82M243 187L242 187C238.212 216.973 260.916 244.837 249.736 274.999C246.841 282.81 236.8 285.206 232 292C240.288 290.775 251.809 285.002 253.656 276C254.838 270.238 252.159 263.043 256.318 258.185C263.369 249.951 275.77 248.312 285.015 244.073C300.353 237.042 314.896 218.752 332 217L332 216C324.905 214.33 319.407 217.111 313 220C311.396 213.265 310.422 200.695 320 201C314.856 179.335 341.543 167.686 357 159.742C389.231 143.179 421.652 128.084 453 109.81C462.054 104.532 481.808 95.4686 485 85C470.221 88.7358 456.938 103.881 443 110.756C414.58 124.774 385.446 137.265 357 151.195C343.498 157.808 328.736 163.137 318.924 175.17C307.507 189.172 314.267 204.161 307.49 218.996C303.32 228.124 295.841 225.802 289.285 229.835C282.144 234.228 276.726 240.692 269 244.745C265.807 246.419 260.017 251.028 256.228 249.557C247.478 246.161 256.163 235.12 255.794 230C255.352 223.879 248.464 218.781 246.329 213C243.352 204.936 245.187 195.453 243 187z"/>
<path style="fill:#efefee; stroke:none;" d="M471 104C475.6 103.882 478.39 100.578 481 97L471 104M470 105L471 106L470 105M368 159L368 161L380 164.679L399 154.461L441.039 127.344L463 110L422 132.497L368 159M523 118C514.414 116.31 500.188 127.186 493 131.628C471.496 144.917 449.243 156.789 428 170.656C421.34 175.003 405.035 181.486 402.796 189.733C401.024 196.262 408.669 201.962 411.33 207.015C415.021 214.021 414.066 223.682 420.38 229.161C430.184 237.671 444.319 242.37 455 249.913C459.084 252.797 464.72 256.569 465.396 262C466.422 270.25 457.236 280.247 453.514 287C444.873 302.677 439.958 318.805 432.688 335C430.057 340.861 423.681 349.512 424.37 356C424.783 359.897 426.772 363.506 428.385 367C430.46 371.493 431.86 377.493 436.189 380.436C450.391 390.092 468.907 362.278 474.675 353C484.414 337.335 487.343 320.748 490.464 303C494.861 277.993 498.81 252.954 503.8 228C511.065 191.672 514.448 153.921 523 118z"/>
<path style="fill:#a8443f; stroke:none;" d="M123 590C128.69 587.014 128.159 580.788 128.7 575C129.431 567.177 124.153 559.64 125.637 552C127.714 541.31 137.282 532.116 135.698 521C133.025 502.231 127.659 480.982 128.054 462C128.293 450.529 133.858 439.527 133.996 428C134.263 405.667 131.393 383.251 134.181 360.996C137.865 331.584 152.792 306.94 147.189 276.09C145.355 265.993 140.15 262.865 134.51 254.999C130.844 249.887 129.588 243.308 126.148 238.015C120.889 229.923 111.641 222.519 108.771 213C107.182 207.73 110.257 191.069 112.415 186C121.97 163.56 144.668 155.921 167 149.986C174.554 147.979 184.125 144.637 192 146.214C202.575 148.331 209.042 158.905 220 161.73C229.947 164.294 239.804 164.067 250 163.954C252.878 163.922 258.516 163.844 259.654 167.391C261.266 172.413 246.275 181.122 244 186C249.62 183.009 272.106 172.273 269.199 164.228C267.889 160.603 262.152 160.658 259 160.285C248.508 159.047 237.564 162.771 227 160.62C221.637 159.529 213.438 156.07 209.325 152.442C205.759 149.297 203.753 144.473 198.999 142.757C193.548 140.79 184.649 142.664 179 143.424C160.657 145.893 138.227 151.606 124.004 164.185C111.844 174.939 99.1984 199.355 104.649 215.999C106.329 221.129 111.181 222.839 114.006 227.054C120.071 236.101 124.798 245.686 130.228 254.96C134.915 262.964 144.566 267.287 145.157 278C145.707 287.993 146.539 302.123 144.32 312C141.177 325.992 134.043 338.881 131.754 353C127.805 377.348 132.573 401.723 130.91 426C130.111 437.668 124.136 448.675 123.498 460C123.157 466.07 127.124 471.182 127.748 477C128.98 488.503 127.761 500.532 129.193 512C129.785 516.739 134.451 520.763 133.96 525.576C133.475 530.329 128.149 534.203 125.684 538C122.701 542.596 121.335 548.564 121.104 554C120.825 560.6 125.219 565.674 126.292 572C127.287 577.875 125.005 584.54 123 590z"/>
<path style="fill:#efefee; stroke:none;" d="M350 170L360 165L350 170z"/>
<path style="fill:#a8443f; stroke:none;" d="M321 202L321 203C333.673 207.617 337.069 197.178 344.34 189.105C347.321 185.794 351.528 184.144 354.907 181.319C359.335 177.617 360.663 173.686 367 175L378 171C356.586 153.324 339.102 200.785 321 202z"/>
<path style="fill:#efefee; stroke:none;" d="M323 194C330.084 195.337 347.251 176.644 349 170C337.394 172.238 325.737 182.49 323 194z"/>
<path style="fill:#c47571; stroke:none;" d="M517 170L516 176L517 170z"/>
<path style="fill:#a8443f; stroke:none;" d="M243 186L244 187L243 186M320 201L321 202L320 201z"/>
<path style="fill:#c47571; stroke:none;" d="M327 217.639C311.183 222.101 299.003 237.352 284.039 244.049C275.259 247.978 261.676 249.768 255.603 258.185C251.383 264.035 255.945 272.684 252.142 278.996C249.009 284.196 230.084 291.605 231.797 296.849C236.217 310.379 249.612 306.646 260 308.213C263.788 308.784 267.072 310.999 271 310.853C275.066 310.701 278.903 307.728 283 308.411C288.59 309.343 291.687 315.014 298 314.681C301.925 314.475 304.22 310.764 308 310.363C312.508 309.885 316.356 313.957 321 312.381C325.824 310.744 328.222 305.365 333 303.603C340.585 300.807 347.462 308.46 353.945 306.214C362.186 303.359 364.532 291.212 366.164 284.285C368.555 274.134 371.454 264.639 373.286 254C374.199 248.698 379.388 241.307 375.397 236.279C369.501 228.852 355.687 235.774 348.04 230.991C340.664 226.377 337.842 214.58 327 217.639z"/>
<path style="fill:#a8443f; stroke:none;" d="M334 217L334 218L349.015 231.991L376 236C371.046 226.472 358.248 230.903 349.989 226.871C343.875 223.886 341.145 218.135 334 217z"/>
<path style="fill:#dba3a1; stroke:none;" d="M328 219.728C315.948 222.245 307.105 233.886 296.91 239.61C285.554 245.987 266.339 248.45 257.703 258.529C252.979 264.043 256.867 273.329 253.326 279.996C250.437 285.437 232.26 292.887 235.337 298.428C242.21 310.803 269.46 307.693 280.715 306.086C287.147 305.168 290.514 312.834 296.985 312.787C301.145 312.757 303.216 308.833 307.093 308.382C311.946 307.817 316.073 312.16 320.985 309.997C325.905 307.83 328.468 302.663 334 301.394C340.575 299.886 347.082 305.311 352.815 303.883C360.479 301.973 362.864 290.072 364.314 284C366.648 274.225 369.557 265.263 371.424 255C372.256 250.429 376.63 242.618 373.968 238.279C369.583 231.13 354.719 237.009 348.001 232.991C341.214 228.931 337.589 217.725 328 219.728z"/>
<path style="fill:#efefee; stroke:none;" d="M328 222.628C312.536 226.234 301.298 241.512 287 247.896C278.596 251.648 265.711 252.767 259.565 260.329C255.362 265.5 258.81 273.873 255.811 280C253.359 285.01 236.596 294.827 239.952 299.61C242.89 303.797 249.574 303.098 254 302.965C259.869 302.787 264.406 305.411 270 305.686C273.627 305.864 276.527 303.552 280 303.079C286.859 302.144 290.487 310.046 297 309.667C300.753 309.448 303.375 306.236 307 305.72C311.567 305.069 315.338 309 320 306.997C325.49 304.638 328.763 299.539 335 298.483C340.732 297.513 346.533 301.986 351.815 300.879C355.005 300.21 357.069 295.817 358.866 293.424C366.201 283.658 366.563 267.72 368.805 256C369.579 251.953 373.252 244.141 370.933 240.318C367.7 234.989 351.874 238.687 346.015 234.867C339.918 230.891 336.816 220.573 328 222.628z"/>
<path style="fill:#c47571; stroke:none;" d="M506 228L504 242C508.152 239.308 507.783 232.249 506 228z"/>
<path style="fill:#a8443f; stroke:none;" d="M376 236L377 237L376 236M377 239C375.319 255.433 370.905 275.746 365.254 291C363.595 295.477 359.569 298.382 358 303C374.15 295.448 372.534 272.509 377.025 258C378.95 251.781 384.046 243.322 377 239z"/>
<path style="fill:#c47571; stroke:none;" d="M503 244L499 275C504.704 270.97 505.646 250.306 503 244M498 277L497 291L498 291L498 277M495 292L494 301L495 301L495 292z"/>
<path style="fill:#a8443f; stroke:none;" d="M230 293C230.306 302.46 236.845 309.134 245.715 311.391C252.477 313.113 260.042 311.398 266.961 312.25C284.742 314.441 301.998 316.893 320 314L320 313C315.984 312.309 311.063 309.137 307 309.928C302.786 310.749 300.736 314.929 296 314.307C290.624 313.601 287.514 308.18 282 308.152C278.132 308.133 274.803 310.51 271 310.685C267.18 310.861 263.778 308.474 260 308.105C245.124 306.65 238.36 307.304 230 293M322 313L339 306.782L354 308C341.814 301.01 330.588 300.809 322 313M354 306L355 307L354 306z"/>
<path style="fill:#c47571; stroke:none;" d="M483 341L480 352L481 352L483 341z"/>
<path style="fill:#dba3a1; stroke:none;" d="M448 389C440.283 386.846 433.521 388.146 427.939 380.91C424.621 376.609 423.055 362.133 416.87 361.466C411.382 360.874 404.484 370.138 399.996 372.935C394.632 376.279 380.615 378.417 377.897 384.278C375.354 389.763 379.15 398.567 380.525 404C381.795 409.013 382.278 415.719 385.514 419.896C400.234 438.897 424.006 425.788 434.579 411C439.439 404.202 445.44 397.034 448 389z"/>
<path style="fill:#efefee; stroke:none;" d="M442 392C434.888 389.494 429.187 386.746 424.995 380C422.525 376.027 421.696 367.249 416.787 365.407C411.982 363.605 403.974 373.09 400 375.421C395.499 378.06 382.794 381.671 380.603 386.302C378.24 391.299 381.475 399.061 382.731 404C383.98 408.914 384.292 414.639 387.649 418.696C400.627 434.379 422.557 424.421 431.809 411C435.97 404.963 440.882 399.427 442 392z"/>
<path style="fill:#a8443f; stroke:none;" d="M426 373L427 377L428 377L428 373L426 373M461 377C456.018 380.468 452.629 383.567 454 390C458.932 388.204 462.818 382.255 461 377M375 395L379 413L380 413L377 395L375 395M444 399L445 400L444 399M287 407C283.384 414.797 286.871 418.38 288.731 426.001C290.691 434.035 291.75 442.831 293.286 451C298.496 478.711 292.095 505.525 295 533L296 533C297.307 518.006 300.971 503.201 300.971 488C300.971 471.843 296.377 455.776 293.615 440C291.615 428.576 293.754 417.749 287 407M438 408C427.32 423.701 416.448 432.857 397 430L397 431C410.884 435.017 419.806 433.113 430.985 423.41C434.966 419.954 441.402 413.402 438 408M386.667 424.333L387.333 424.667L386.667 424.333M388 426L395 430L388 426M295 536L295 539L296 539L295 536M296 539C296.271 544.922 299.169 550.159 299.61 556C300.095 562.409 297.333 569.579 299.89 575.83C302.01 581.014 307.154 585.078 309.957 590C318.658 605.282 327.586 622.431 330 640L334 640C329.09 624.544 326.027 608.544 318.688 594C314.496 585.693 306.12 579.84 302.843 571C298.838 560.195 309.517 545.591 296 539M114 640L115 640C114.968 630.773 110.328 621.208 106.241 613C104.2 608.903 100.462 603.794 103.029 599.105C107.683 590.6 118.701 597.02 123 590C115.994 592.804 107.598 585.356 101.303 589.067C97.578 591.263 96.7002 600.135 97.159 604C97.7572 609.04 101.965 612.685 104.239 617C107.885 623.919 111.238 632.661 114 640z"/>
</svg>
