<?xml version="1.0" standalone="yes"?>
<svg xmlns="http://www.w3.org/2000/svg" width="150" height="200">
<path style="fill:#448fd9; stroke:none;" d="M0 0L0 159C16.7054 157.636 41.8189 150.763 45.0733 131C46.815 120.423 33.4255 109.09 30.5741 100C27.8686 91.3749 31.4179 84.9073 30.4637 77C29.1632 66.223 21.4484 54.1531 25.8326 43C31.564 28.4196 60.9256 15.0085 76 15.7492C90.7435 16.4738 102.101 25.4975 116 29L114 32C131.04 44.0367 123.279 60.0649 122.119 77C121.583 84.8261 123.901 92.2487 120.852 100C119.397 103.699 116.165 105.9 114.317 109.285C108.471 119.995 106.828 137.385 116.39 146.581C123.286 153.213 140.802 155.872 150 158L150 0L0 0z"/>
<path style="fill:#696f7e; stroke:none;" d="M74 15L74 16L77 16L74 15M68 16L69 17L68 16z"/>
<path style="fill:#171b20; stroke:none;" d="M34 85L35 85C35 75.3776 32.464 57.0255 45 54L46 50L54 43L57 44L59 38L62 40L74 34L75 34L79 41L80 38L81 38L86 44L85 42L86 42L94 50L98 47C100.852 50.6151 104.394 54.8228 109 52L115 87L116 87C116.132 81.9821 119.731 81.9944 121.167 78C124.818 67.8408 125.896 55.3514 123.667 45C122.68 40.4196 111.882 32.0251 114 29C105.787 26.0203 98.0913 20.9083 89.9853 18.2245C73.2461 12.6823 59.3925 18.8177 45 26.8302C37.304 31.1147 28.6037 34.5811 26.1883 44C22.8103 57.1722 30.0458 72.655 34 85z"/>
<path style="fill:#696f7e; stroke:none;" d="M79.6667 16.3333L80.3333 16.6667L79.6667 16.3333M83 16L84 17L83 16M62 17L62 18L65 18L62 17M87 17L88 18L87 17M60 18L61 19L60 18M91 18L92 19L91 18M58 19L59 20L58 19M93 19L94 20L93 19M55 20L56 21L55 20M95 20L99 23L99 22L95 20M53 21L54 22L53 21M51.6667 22.3333L52.3333 22.6667L51.6667 22.3333M50 23L51 24L50 23M99.6667 23.3333L100.333 23.6667L99.6667 23.3333M48 24L49 25L48 24M103.667 24.3333L104.333 24.6667L103.667 24.3333M47 25L48 26L47 25M105 25L105 26L108 26L105 25M45 26L46 27L45 26M108 26L111 28L108 26M43.6667 27.3333L44.3333 27.6667L43.6667 27.3333M41 28L42 29L41 28M112.667 28.3333L113.333 28.6667L112.667 28.3333M39 29L40 30L39 29M112 31L116 29L112 31M37 30L38 31L37 30M36 31L37 32L36 31M34 32L35 33L34 32M115 32L116 33L115 32M33 33L34 34L33 33M116 33L123 45L124 45C123.274 39.5715 120.368 36.1444 116 33M31 34L32 35L31 34z"/>
<path style="fill:#866751; stroke:none;" d="M62 40L59 38L57 44L54 43L46 50L45 54C31.4505 55.6677 36.8832 75.8663 35 85L34 85L34 82C24.3814 85.5471 31.1132 106.613 40 108C40.9969 115.847 44.6894 121.66 46.571 129C49.946 142.165 50.4286 149.677 61.439 159.745C64.8778 162.89 69.8708 169.386 75 169.278C80.2582 169.167 88.0064 162.624 92 159.482C95.7898 156.501 99.4005 152.927 102.211 149C110.046 138.054 106.934 122.291 112.514 110.039C116.009 102.366 125.803 94.2813 121.387 84.1381C119.072 78.8216 116.239 83.9292 116 87L115 87L109 52C104.29 53.7954 101.317 50.0101 98 47L94 50L85 42L86 44L85 44L81 38L80 38L79 41L75 34L74 34L73 36C69.3714 31.9171 63.9641 36.2224 62 40z"/>
<path style="fill:#696f7e; stroke:none;" d="M30 35L31 36L30 35M29 36L30 37L29 36M28 38L29 39L28 38M27.3333 39.6667L27.6667 40.3333L27.3333 39.6667M26 41L27 42L26 41M25 42L25 48L26 48L25 42z"/>
<path style="fill:#c5b09f; stroke:none;" d="M68 42L59 49L57 48L51 54L53 53L51 55L51 56L58 54L66 58C62.9775 67.3766 46.9226 61.1672 45 74C49.3977 73.5384 54.6651 71.3993 58.9946 72.6674C61.9322 73.5279 64.9536 75.6852 62 78L62 77L64 76L60 75C55.1568 80.8146 48.4525 79.0134 42 77C42.2011 82.6307 40.1649 98.9903 49 100L49 101L47 102L51 104L56 111C54.8901 114.059 54.431 116.235 58 117L56 114L61 115L60 111C64.2271 113.185 68.0674 113.371 69 108L91 113L90 109L93 110L93 119C89.1364 117.474 86.2309 117.207 86 122L64 124L64 125L66 127C62.835 129.145 67.9556 130.397 70 131C71.4911 128.913 72.6773 129.499 73 132L74 132L79 131L88 131L90 125L86 124L92 122C102.35 108.792 107.021 94.5178 108 78C101.248 79.6032 93.7679 80.9832 89 75L86 76C91.1718 71.154 97.7874 73.7184 104 75L105 69L105 68L103 66L83 62L83 60L93 58L93 57L90 57L93 55L73 43L68 42z"/>
<path style="fill:#696f7e; stroke:none;" d="M124 45L124 50L125 50L124 45z"/>
<path style="fill:#866751; stroke:none;" d="M62 46L63 47L62 46z"/>
<path style="fill:#696f7e; stroke:none;" d="M24.3333 48.6667L24.6667 49.3333L24.3333 48.6667z"/>
<path style="fill:#866751; stroke:none;" d="M47 49L48 50L47 49z"/>
<path style="fill:#696f7e; stroke:none;" d="M25.3333 50.6667L25.6667 51.3333L25.3333 50.6667z"/>
<path style="fill:#c5b09f; stroke:none;" d="M94 53L95 54L94 53z"/>
<path style="fill:#696f7e; stroke:none;" d="M125 53L125 58L126 58L125 53M25 55L26 59L27 59L25 55z"/>
<path style="fill:#c5b09f; stroke:none;" d="M57 56L58 57L57 56z"/>
<path style="fill:#696f7e; stroke:none;" d="M52 59L52 60C54.9965 60.7108 57.5626 61.4656 58 58L57 58L57 60L55 58L52 59z"/>
<path style="fill:#171b20; stroke:none;" d="M55 60L58 60L57 58L55 60M58 58L59 59L58 58z"/>
<path style="fill:#866751; stroke:none;" d="M83 60L83 62L93 64L94 60L83 60z"/>
<path style="fill:#171b20; stroke:none;" d="M88 59L88 60L94 60L93 62L99 62L88 59z"/>
<path style="fill:#696f7e; stroke:none;" d="M94 59L94 60L97 60L94 59M26 60L28 68L29 68L26 60z"/>
<path style="fill:#171b20; stroke:none;" d="M52.6667 60.3333L53.3333 60.6667L52.6667 60.3333M51 61L52 62L51 61z"/>
<path style="fill:#696f7e; stroke:none;" d="M124 61L124 65L125 65L124 61M93 62L93 63L99 63L93 62z"/>
<path style="fill:#171b20; stroke:none;" d="M100.667 62.3333L101.333 62.6667L100.667 62.3333z"/>
<path style="fill:#696f7e; stroke:none;" d="M123 65L123 72L124 72L123 65M27 68L28 69L27 68M35 69L35 83L36 83L35 69M28 70L30 73L28 70z"/>
<path style="fill:#866751; stroke:none;" d="M46 71L47 72L46 71M53 72L53 73L64 75L62 77C65.52 78.341 64.1184 74.6251 61.9167 73.3704C59.213 71.8296 55.9962 72.0102 53 72z"/>
<path style="fill:#696f7e; stroke:none;" d="M30 73L30 77L31 77L30 73z"/>
<path style="fill:#866751; stroke:none;" d="M50 73L50 74L53 75L50 73z"/>
<path style="fill:#171b20; stroke:none;" d="M52 73L52 74L59 78L60 73L52 73z"/>
<path style="fill:#866751; stroke:none;" d="M86 75L90 73L86 75z"/>
<path style="fill:#171b20; stroke:none;" d="M89 74C91.658 78.339 94.8876 78.0961 96 73L89 74z"/>
<path style="fill:#866751; stroke:none;" d="M96 73L96 75L98 73L96 73M102 73L103 74L102 73z"/>
<path style="fill:#696f7e; stroke:none;" d="M122 73L123 74L122 73z"/>
<path style="fill:#171b20; stroke:none;" d="M49 76L52 74L49 76z"/>
<path style="fill:#696f7e; stroke:none;" d="M53 74L54 75L53 74M55.6667 74.3333L56.3333 74.6667L55.6667 74.3333M58 74L59 75L58 74M93.3333 74.6667L93.6667 75.3333L93.3333 74.6667z"/>
<path style="fill:#171b20; stroke:none;" d="M97 74L100 76L97 74z"/>
<path style="fill:#c5b09f; stroke:none;" d="M52 75L55 78L52 75z"/>
<path style="fill:#171b20; stroke:none;" d="M63 75L64 76L63 75M86 75L87 76L86 75z"/>
<path style="fill:#696f7e; stroke:none;" d="M89 75L90 76L89 75M91 75L92 76L91 75z"/>
<path style="fill:#c5b09f; stroke:none;" d="M96 75L95 78L96 75z"/>
<path style="fill:#171b20; stroke:none;" d="M48 76L49 77L48 76z"/>
<path style="fill:#696f7e; stroke:none;" d="M59 76L60 77L59 76z"/>
<path style="fill:#866751; stroke:none;" d="M85 76L85 78L87 78L85 76M89 76L90 77L89 76z"/>
<path style="fill:#696f7e; stroke:none;" d="M95 76L96 77L95 76z"/>
<path style="fill:#171b20; stroke:none;" d="M100 76L101 77L100 76z"/>
<path style="fill:#696f7e; stroke:none;" d="M121 76L119 81L122 92L123 92L121 76M31 77C28.7534 86.0505 27.3859 93.7896 31.2832 102.995C35.3472 112.595 44.1105 120.649 45 132C48.8101 128.613 41.0241 113.435 40 108C31.0609 105.463 26.0851 88.5631 33 82L31 77z"/>
<path style="fill:#866751; stroke:none;" d="M90 77L91 78L90 77M89 78L90 79L89 78z"/>
<path style="fill:#696f7e; stroke:none;" d="M114 79L114 84L115 84L114 79z"/>
<path style="fill:#866751; stroke:none;" d="M88 80L89 81L88 80M90.6667 80.3333L91.3333 80.6667L90.6667 80.3333M80 81L80 84L82 83L82 82L80 81z"/>
<path style="fill:#171b20; stroke:none;" d="M119 84L121 86L119 84M30 85L32 87L32 85L30 85z"/>
<path style="fill:#c5b09f; stroke:none;" d="M117 85L118 92L119 92L119 85L117 85z"/>
<path style="fill:#866751; stroke:none;" d="M80 86L79 90L80 90L80 86z"/>
<path style="fill:#c5b09f; stroke:none;" d="M33 87L34 88L33 87M34 89L33 92L34 89z"/>
<path style="fill:#866751; stroke:none;" d="M68 90C67.2974 91.3405 66.5438 92.5873 66.0949 94.044C62.2275 106.593 76.3755 99.3781 82 102C88.0994 99.5478 85.7818 92.7232 81 90L84 98L73 99L70 96L70 101L69 97L68 97L68 99L67 99L68 90z"/>
<path style="fill:#696f7e; stroke:none;" d="M121 92L112.988 108.17L106 133L109 133C108.685 127.73 111.788 114.923 114.317 110.17C117.585 104.028 124.285 99.902 121 92z"/>
<path style="fill:#171b20; stroke:none;" d="M69 97L69 100L72 99L72 98L69 97M79 99L82 97L79 99z"/>
<path style="fill:#c5b09f; stroke:none;" d="M70 100L71 101L70 100z"/>
<path style="fill:#866751; stroke:none;" d="M58 113L59 114L58 113z"/>
<path style="fill:#171b20; stroke:none;" d="M69 114L69 115L72 115L69 114M64 115L64 116L68 116L64 115z"/>
<path style="fill:#c5b09f; stroke:none;" d="M74 116L74 117L80 118L79 115L74 116z"/>
<path style="fill:#171b20; stroke:none;" d="M87 115L88 116L87 115z"/>
<path style="fill:#c5b09f; stroke:none;" d="M62 118L62 119L66 120L66 117L62 118z"/>
<path style="fill:#866751; stroke:none;" d="M88 118L89 119L88 118M89 120L90 121L89 120z"/>
<path style="fill:#c5b09f; stroke:none;" d="M64 122L65 123L64 122z"/>
<path style="fill:#171b20; stroke:none;" d="M45 132C40.1354 139.217 36.3316 147.973 28 151.753C21.5498 154.679 5.25814 155.288 1.02778 160.728C-1.02486 163.367 0 168.87 0 172L0 200L51 200C48.0767 176.869 41.723 155.085 47 132L45 132M107 132C115.847 152.478 99.6659 178.891 98 200L150 200L150 158C140.564 155.817 124.429 153.212 117.105 146.722C112.338 142.499 112.329 135.427 107 132M100 133C87.821 139.417 75.19 138.041 62 137L62 138C75.2087 142.224 88.9726 141.558 101 134L100 133z"/>
<path style="fill:#c5b09f; stroke:none;" d="M107 133C106.854 150.453 89.7834 161.355 76 169L76 170C89.7767 179.138 81.0608 186.67 80 200C84.1721 200 92.9807 201.671 96.3966 198.972C99.2667 196.705 99.4897 187.535 100.373 184C103.561 171.251 115.278 145.118 107 133z"/>
<path style="fill:#696f7e; stroke:none;" d="M43 134L44 135L43 134M46 134L47 135L46 134z"/>
<path style="fill:#171b20; stroke:none;" d="M56.6667 134.333L57.3333 134.667L56.6667 134.333z"/>
<path style="fill:#696f7e; stroke:none;" d="M108 134L109 135L108 134z"/>
<path style="fill:#c5b09f; stroke:none;" d="M46 135L51 200L72 200C71.7275 187.207 59.826 179.011 73 170L46 135z"/>
<path style="fill:#171b20; stroke:none;" d="M59.6667 136.333L60.3333 136.667L59.6667 136.333z"/>
<path style="fill:#696f7e; stroke:none;" d="M41 137L42 138L41 137M45.3333 137.667L45.6667 138.333L45.3333 137.667M111 137L112 138L111 137M109 139L109 145L110 145L109 139M39 140L40 141L39 140M112 140L113 141L112 140M38 142L39 143L38 142M113 142L114 143L113 142M44.3333 143.667L44.6667 144.333L44.3333 143.667M105 143L106 144L105 143z"/>
<path style="fill:#c5b09f; stroke:none;" d="M82 144L83 145L82 144z"/>
<path style="fill:#696f7e; stroke:none;" d="M114 144L115 145L114 144M36 145L37 146L36 145M118 148L119 149L118 148M43.3333 149.667L43.6667 150.333L43.3333 149.667M121 149L122 150L121 149M31 150L32 151L31 150z"/>
<path style="fill:#c5b09f; stroke:none;" d="M56 150L61 156L66 160L64 153L56 150z"/>
<path style="fill:#696f7e; stroke:none;" d="M108 150L108 153L109 153L108 150M124 150L125 151L124 150M26 152L27 153L26 152z"/>
<path style="fill:#c5b09f; stroke:none;" d="M93 152L94 153L93 152z"/>
<path style="fill:#696f7e; stroke:none;" d="M131 152L132 153L131 152M23 153L24 154L23 153z"/>
<path style="fill:#866751; stroke:none;" d="M59 153L60 154L59 153z"/>
<path style="fill:#696f7e; stroke:none;" d="M134 153L135 154L134 153M20 154L21 155L20 154M137.667 154.333L138.333 154.667L137.667 154.333M17 155L18 156L17 155M44.3333 155.667L44.6667 156.333L44.3333 155.667z"/>
<path style="fill:#866751; stroke:none;" d="M61 155L62 156L61 155z"/>
<path style="fill:#c5b09f; stroke:none;" d="M94 155L95 156L94 155z"/>
<path style="fill:#696f7e; stroke:none;" d="M107 155L107 158L108 158L107 155M141 155L142 156L141 155M12.6667 156.333L13.3333 156.667L12.6667 156.333M144 156L145 157L144 156M8.66667 157.333L9.33333 157.667L8.66667 157.333z"/>
<path style="fill:#c5b09f; stroke:none;" d="M74 157L74 158L82 159L74 157z"/>
<path style="fill:#696f7e; stroke:none;" d="M147 157L148 158L147 157M4.66667 158.333L5.33333 158.667L4.66667 158.333M0.666667 159.333L1.33333 159.667L0.666667 159.333M45 160L45 163L46 163L45 160M106.333 160.667L106.667 161.333L106.333 160.667z"/>
<path style="fill:#c5b09f; stroke:none;" d="M67.3333 161.667L67.6667 162.333L67.3333 161.667M73 162L73 164L75 164L73 162M81 164L82 165L81 164z"/>
<path style="fill:#696f7e; stroke:none;" d="M105.333 164.667L105.667 165.333L105.333 164.667M104.333 167.667L104.667 168.333L104.333 167.667M46 168L46 171L47 171L46 168z"/>
<path style="fill:#171b20; stroke:none;" d="M64 177L64 178C68.6233 184.499 71.9282 191.969 72 200L80 200C80.1482 193.044 85.2974 186.505 85.0957 180C84.674 166.4 69.5974 171.663 64 177z"/>
<path style="fill:#696f7e; stroke:none;" d="M75 170L75 171L78 171L75 170M70 171L71 172L70 171M103 172L104 173L103 172M67 173L68 174L67 173M47 174L47 177L48 177L47 174M66 174L67 175L66 174M82 174L83 175L82 174M65 175L66 176L65 175M83 175L84 176L83 175M102.333 175.667L102.667 176.333L102.333 175.667M64 176L65 177L64 176M85 178L86 179L85 178M65 179L66 180L65 179M101.333 179.667L101.667 180.333L101.333 179.667M48 180L48 183L49 183L48 180M66 181L67 182L66 181M84.3333 182.667L84.6667 183.333L84.3333 182.667M67 183L68 184L67 183M100.333 183.667L100.667 184.333L100.333 183.667M49 185L49 189L50 189L49 185M68.3333 185.667L68.6667 186.333L68.3333 185.667M83 185L84 186L83 185M82 187L83 188L82 187M99.3333 187.667L99.6667 188.333L99.3333 187.667M69 188L70 189L69 188M70 190L71 191L70 190M81 190L82 191L81 190M98 191L98 196L99 196L98 191M71.3333 192.667L71.6667 193.333L71.3333 192.667M80 193L80 196L81 196L80 193M50 194L50 197L51 197L50 194M97 199L98 200L97 199z"/>
</svg>
