<?xml version="1.0" standalone="yes"?>
<svg xmlns="http://www.w3.org/2000/svg" width="750" height="1344">
<path style="fill:#f5f7fb; stroke:none;" d="M0 0L0 1344L750 1344L750 0L0 0z"/>
<path style="fill:#b4a09e; stroke:none;" d="M362 246L365 227C353.917 224.361 330.591 217.638 327.349 235C325.855 242.997 334.266 247.74 335.683 255C336.855 261.002 333.052 267.788 333 274L334 274C334.143 267.265 337.932 260.727 336.772 254C335.761 248.139 330.076 244.6 328.606 239C326.312 230.254 337.779 224.099 345 224.148C351.17 224.191 357.449 227.608 364 228L364 230C356.798 233.632 360.441 239.581 360 246L363 247L361 251L362 251C369.578 242.323 376.524 244.297 386 245C383.829 261.11 371.026 258.929 358 258L361 253L360 253L356 257L356 258C370.039 265.492 386.292 260.456 387 244L377 240.837L365 246L365 245L376.279 230.329L397 220L397 221C389.547 223.538 376.802 227.479 375 236C388.157 229.975 408.928 221.594 416 208L422 212C415.374 203.309 409.074 211.027 402 215.124C393.805 219.87 382.283 222.227 375.344 228.708C372.221 231.625 372.697 235.344 370.683 238.74C368.855 241.822 364.767 243.825 362 246z"/>
<path style="fill:#686969; stroke:none;" d="M416.667 208.333L417.333 208.667L416.667 208.333z"/>
<path style="fill:#cb3d2d; stroke:none;" d="M375 236L376 231L366 246C375.513 241.849 377.179 242.935 387 244C385.664 260.782 370.331 264.072 356 258L356 257C364.621 251.396 359.27 244.983 359.356 237C359.392 233.764 361.753 230.874 363 228L362 227C351.33 228.753 339.581 218.397 330.653 230.105C322.499 240.797 337.741 247.541 336.8 258C335.381 273.772 332.406 287.905 333.231 304C333.459 308.425 330.721 313.563 333.179 317.674C337.546 324.98 351.287 328.824 359 330.844C364.869 332.381 372.134 333.718 378 332C376.327 326.106 372.474 320.825 371.188 315C369.83 308.847 371.432 303.097 370.713 297C370.26 293.159 367.157 285.253 369.889 281.89C376.838 273.334 392.501 279.763 398.381 266.961C400.192 263.019 406.473 253.433 404.759 249.21C402.495 243.629 393.413 242.639 393.569 235.04C393.647 231.275 398.272 229.28 401 227.576C408.403 222.952 415.926 218.362 424 215L424 213L416.285 209.748L403 219.974L375 236z"/>
<path style="fill:#b4a09e; stroke:none;" d="M423 212L424 213L423 212M424.333 213.667L424.667 214.333L424.333 213.667z"/>
<path style="fill:#686969; stroke:none;" d="M406 214L407 215L406 214z"/>
<path style="fill:#b4a09e; stroke:none;" d="M422.667 215.333L423.333 215.667L422.667 215.333M383 277L383 278L386 281L387 281L387 279L388 279C387.221 284.937 391.429 291.033 397.957 287.127C402.571 284.365 406.572 277.622 409.134 272.996C418.361 256.335 416.904 234.136 422 216C415.544 217.86 394.203 226.815 392.994 234.093C391.699 241.889 401.436 243.903 404.006 249.21C405.521 252.338 402.567 256.248 401.309 259C397.153 268.085 393.825 275.069 383 277z"/>
<path style="fill:#686969; stroke:none;" d="M401 217L402 218L401 217M397 220L400 218L397 220z"/>
<path style="fill:#f5f7fb; stroke:none;" d="M419 219C412.251 220.301 392.163 229.465 395.306 237.997C397.189 243.108 406.247 245.715 406.044 251.04C405.858 255.902 393.071 271.331 401.265 274.744C406.023 276.726 410.367 267.322 411.366 264C415.365 250.693 418.712 232.853 419 219z"/>
<path style="fill:#686969; stroke:none;" d="M394 220L395 221L394 220z"/>
<path style="fill:#cb3d2d; stroke:none;" d="M395 220L392 221L392 222L395 220z"/>
<path style="fill:#686969; stroke:none;" d="M396 220L397 221L396 220z"/>
<path style="fill:#f5f7fb; stroke:none;" d="M399.667 220.333L400.333 220.667L399.667 220.333M398 221L399 222L398 221z"/>
<path style="fill:#686969; stroke:none;" d="M387 224L393 223L387 224z"/>
<path style="fill:#f5f7fb; stroke:none;" d="M396 222L387 228L396 222z"/>
<path style="fill:#cb3d2d; stroke:none;" d="M378 228L378 229L388 225L378 228z"/>
<path style="fill:#686969; stroke:none;" d="M386 225L387 226L386 225M363.333 228.667L363.667 229.333L363.333 228.667M375 230L375 231L379 230L375 230M373 241L374 242L373 241z"/>
<path style="fill:#f5f7fb; stroke:none;" d="M358 258C371.082 259.627 384.65 261.532 386 245C382.942 244.541 380.009 242.292 377 242.236C367.878 242.068 361.743 251.306 358 258z"/>
<path style="fill:#686969; stroke:none;" d="M372 242L373 243L372 242M366 244L367 245L366 244M369 244L370 245L369 244M365 245L366 246L365 245M367 245L368 246L367 245M363.667 246.333L364.333 246.667L363.667 246.333M362 247L363 248L362 247z"/>
<path style="fill:#f5f7fb; stroke:none;" d="M388 277C390.158 286.859 397.357 285.938 402 278L397 273L388 277z"/>
<path style="fill:#686969; stroke:none;" d="M405 275L404 277L406 277L405 275z"/>
<path style="fill:#b4a09e; stroke:none;" d="M379 278L379 279L383 279L379 278M375 279L375 280L379 280L375 279z"/>
<path style="fill:#686969; stroke:none;" d="M387 279L387 282L388 282L387 279z"/>
<path style="fill:#b4a09e; stroke:none;" d="M370 280L370 281L375 281L370 280M333 281L333 287L334 287L333 281M369 281L371.415 317L377 333C380.328 329.971 377.27 324.404 375.421 321.015C368.639 308.578 375.442 293.298 369 281M332 288L332 291L333 291L332 288M331 291L331 295L332 295L331 291M332 295L332 305L333 305L332 295M333 305L332 310L333 310L333 305M331 310L331 313L332 313L331 310z"/>
<path style="fill:#686969; stroke:none;" d="M331 313L332 314L331 313z"/>
<path style="fill:#b4a09e; stroke:none;" d="M331 314L331 317L332 317L331 314M332.333 317.667L332.667 318.333L332.333 317.667M334 319L335 320L334 319M335 320L336 321L335 320M336.667 321.333L337.333 321.667L336.667 321.333M338 322L339 323L338 322M340 323L341 324L340 323M341.667 324.333L342.333 324.667L341.667 324.333M343.667 325.333L344.333 325.667L343.667 325.333M346 326L347 327L346 326M348 327L349 328L348 327M351 328L352 329L351 328M353.667 329.333L354.333 329.667L353.667 329.333M357 330L358 331L357 330M361 331L362 332L361 331M367 332L367 333L370 333L367 332M339 366L340 367L339 366z"/>
<path style="fill:#686969; stroke:none;" d="M338 367L339 368L338 367z"/>
<path style="fill:#010101; stroke:none;" d="M339 367L330 383L338 384L331 393C334.347 397.641 340.013 395.394 345 395L345 393L336 393C339.81 388.195 345.657 382.43 345 376L334 382L342 368L339 367z"/>
<path style="fill:#686969; stroke:none;" d="M341 367L342 368L341 367z"/>
<path style="fill:#010101; stroke:none;" d="M397 367L397 381L381 381L381 384L397 384L397 403L378 403L378 406L419 406L419 403L401 403L401 384L417 384L417 381L401 381L401 367L397 367z"/>
<path style="fill:#686969; stroke:none;" d="M337 369L338 370L337 369M341 369L342 370L341 369z"/>
<path style="fill:#b4a09e; stroke:none;" d="M357 375L357 374L348 374L348 371L371 371C366.944 369.298 352.252 367.996 348.662 371.008C344.2 374.753 355.605 374.999 357 375z"/>
<path style="fill:#686969; stroke:none;" d="M336 371L337 372L336 371z"/>
<path style="fill:#b4a09e; stroke:none;" d="M340 371L341 372L340 371z"/>
<path style="fill:#010101; stroke:none;" d="M348 371L348 374C350.664 374.009 354.325 373.53 356.397 375.603C359.676 378.885 359.677 399.116 356.397 402.397C353.972 404.821 349.113 404 346 404L346 401L330 403C333.199 407.877 340.954 404.217 346 404L346 407L372 407L372 404C355.976 403.988 361 386.174 361 374L370 374L370 371L348 371z"/>
<path style="fill:#686969; stroke:none;" d="M370 371L370 374L371 374L370 371M335 373L336 374L335 373z"/>
<path style="fill:#b4a09e; stroke:none;" d="M339 373L340 374L339 373z"/>
<path style="fill:#686969; stroke:none;" d="M338 374L339 375L338 374z"/>
<path style="fill:#b4a09e; stroke:none;" d="M361 374L361 375L371 375L361 374z"/>
<path style="fill:#686969; stroke:none;" d="M334 375L335 376L334 375M357 375L357 403L358 403L357 375z"/>
<path style="fill:#b4a09e; stroke:none;" d="M333 376L334 377L333 376M337 376L338 377L337 376z"/>
<path style="fill:#686969; stroke:none;" d="M343 376L344 377L343 376z"/>
<path style="fill:#b4a09e; stroke:none;" d="M345 376L346 377L345 376z"/>
<path style="fill:#686969; stroke:none;" d="M336 377L337 378L336 377z"/>
<path style="fill:#b4a09e; stroke:none;" d="M342 377L343 378L342 377z"/>
<path style="fill:#686969; stroke:none;" d="M346 377L347 378L346 377M332 378L333 379L332 378z"/>
<path style="fill:#b4a09e; stroke:none;" d="M336 378L337 379L336 378M346 378L347 379L346 378M331 379L332 380L331 379z"/>
<path style="fill:#686969; stroke:none;" d="M335 379L336 380L335 379z"/>
<path style="fill:#b4a09e; stroke:none;" d="M341 379L342 380L341 379z"/>
<path style="fill:#686969; stroke:none;" d="M345 379L346 380L345 379M334 380L340 382L340 381L334 380z"/>
<path style="fill:#b4a09e; stroke:none;" d="M396 380L397 381L396 380M401 380L402 381L401 380M344 381L345 382L344 381z"/>
<path style="fill:#686969; stroke:none;" d="M343 382L344 383L343 382M330 383L330 384L335 385L335 384L330 383z"/>
<path style="fill:#b4a09e; stroke:none;" d="M330 384L331 385L330 384M335 384L335 385L338 386L335 384M342 384L343 385L342 384z"/>
<path style="fill:#686969; stroke:none;" d="M381 384L381 385L397 385L381 384M401 384L401 385L417 385L401 384M341 385L342 386L341 385M336 387L337 388L336 387z"/>
<path style="fill:#b4a09e; stroke:none;" d="M340 387L341 388L340 387z"/>
<path style="fill:#686969; stroke:none;" d="M335 388L336 389L335 388M339 388L340 389L339 388z"/>
<path style="fill:#b4a09e; stroke:none;" d="M334 389L335 390L334 389z"/>
<path style="fill:#686969; stroke:none;" d="M338 389L339 390L338 389M333 391L334 392L333 391z"/>
<path style="fill:#b4a09e; stroke:none;" d="M337 391L337 392L341 393L341 392L337 391z"/>
<path style="fill:#686969; stroke:none;" d="M332 392L333 393L332 392M336 392L337 393L336 392z"/>
<path style="fill:#f5f7fb; stroke:none;" d="M337 392L338 393L337 392z"/>
<path style="fill:#686969; stroke:none;" d="M341 392L341 393L345 395C346.095 392.095 343.45 392.12 341 392M331 394L332 395L331 394z"/>
<path style="fill:#b4a09e; stroke:none;" d="M331 395L332 396L331 395z"/>
<path style="fill:#686969; stroke:none;" d="M340 395L340 396L343 396L340 395z"/>
<path style="fill:#b4a09e; stroke:none;" d="M343.667 395.333L344.333 395.667L343.667 395.333z"/>
<path style="fill:#686969; stroke:none;" d="M332.667 396.333L333.333 396.667L332.667 396.333z"/>
<path style="fill:#b4a09e; stroke:none;" d="M334.667 396.333L335.333 396.667L334.667 396.333M343.667 400.333L344.333 400.667L343.667 400.333z"/>
<path style="fill:#686969; stroke:none;" d="M345 400L346 401L345 400z"/>
<path style="fill:#b4a09e; stroke:none;" d="M337.667 401.333L338.333 401.667L337.667 401.333z"/>
<path style="fill:#686969; stroke:none;" d="M339.667 401.333L340.333 401.667L339.667 401.333z"/>
<path style="fill:#b4a09e; stroke:none;" d="M331.667 402.333L332.333 402.667L331.667 402.333z"/>
<path style="fill:#686969; stroke:none;" d="M333.667 402.333L334.333 402.667L333.667 402.333z"/>
<path style="fill:#b4a09e; stroke:none;" d="M396 402L397 403L396 402z"/>
<path style="fill:#686969; stroke:none;" d="M346 403L346 404L357 404L346 403M362 403L362 404L372 404L362 403M419 403C416.518 406.829 412.206 406 408 406L378 406L378 407L420 407L419 403M340.667 404.333L341.333 404.667L340.667 404.333z"/>
<path style="fill:#b4a09e; stroke:none;" d="M342.667 404.333L343.333 404.667L342.667 404.333M372 404L372 407L373 407L372 404z"/>
<path style="fill:#686969; stroke:none;" d="M330 405L331 406L330 405M335.667 405.333L336.333 405.667L335.667 405.333z"/>
<path style="fill:#b4a09e; stroke:none;" d="M337 405L338 406L337 405M330 406L330 407L333 407L330 406M274.667 426.333L275.333 426.667L274.667 426.333M298.667 426.333L299.333 426.667L298.667 426.333M351 426L352 427L351 426M367 426L368 427L367 426M433 426L434 427L433 426M270.667 427.333L271.333 427.667L270.667 427.333z"/>
<path style="fill:#686969; stroke:none;" d="M284 447C283.628 442.678 285.625 438.203 284.343 434.005C279.239 417.288 255.168 435.072 269.214 444.991C273.643 448.119 279.067 445.8 284 447z"/>
<path style="fill:#b4a09e; stroke:none;" d="M278.667 427.333L279.333 427.667L278.667 427.333M294.667 427.333L295.333 427.667L294.667 427.333z"/>
<path style="fill:#686969; stroke:none;" d="M308 447C307.628 442.678 309.625 438.203 308.343 434.005C303.239 417.288 279.168 435.072 293.214 444.991C297.643 448.119 303.067 445.8 308 447z"/>
<path style="fill:#b4a09e; stroke:none;" d="M302.667 427.333L303.333 427.667L302.667 427.333M337 427L338 428L337 427z"/>
<path style="fill:#686969; stroke:none;" d="M335 430L339 430L339 447L341 447L341 427L335 430z"/>
<path style="fill:#b4a09e; stroke:none;" d="M348 427L346 430L348 427z"/>
<path style="fill:#686969; stroke:none;" d="M346 432C361.751 424.452 348.589 441.19 346 447L359 447L359 445L350 445C352.252 441.085 356.965 436.835 356.743 432.019C356.396 424.501 348.237 427.564 346 432z"/>
<path style="fill:#b4a09e; stroke:none;" d="M364 427L362 430L364 427z"/>
<path style="fill:#686969; stroke:none;" d="M362 432C377.751 424.452 364.589 441.19 362 447L375 447L375 445L366 445C368.252 441.085 372.965 436.835 372.743 432.019C372.396 424.501 364.237 427.564 362 432M381 427L381 438C390.814 434.952 390.594 446.026 379 443C389.417 454.803 397.139 431.701 382 436L383 429L390 429L390 427L381 427z"/>
<path style="fill:#b4a09e; stroke:none;" d="M390.333 427.667L390.667 428.333L390.333 427.667z"/>
<path style="fill:#686969; stroke:none;" d="M395 427L395 429L405 429L398 447C403.072 443.282 406.375 433.111 407 427L395 427z"/>
<path style="fill:#b4a09e; stroke:none;" d="M407 427L407 430L408 430L407 427z"/>
<path style="fill:#686969; stroke:none;" d="M411 427L411 429L421 429L414 447C419.072 443.282 422.375 433.111 423 427L411 427z"/>
<path style="fill:#b4a09e; stroke:none;" d="M423 427L423 430L424 430L423 427M430 427L431 428L430 427z"/>
<path style="fill:#686969; stroke:none;" d="M431.148 427.758C425.459 430.131 425.355 450.411 435.891 446.242C442.248 443.727 440.378 423.907 431.148 427.758z"/>
<path style="fill:#b4a09e; stroke:none;" d="M436 427L437 428L436 427M449 427L450 428L449 427z"/>
<path style="fill:#686969; stroke:none;" d="M445 436C447.144 431.967 449.492 429.912 454 429L454 427C443.836 428.132 437.671 446.977 449.961 446.623C458.649 446.374 456.295 430.666 445 436z"/>
<path style="fill:#b4a09e; stroke:none;" d="M454.333 427.667L454.667 428.333L454.333 427.667M462 427L463 428L462 427z"/>
<path style="fill:#686969; stroke:none;" d="M460 430L464 430L464 447L466 447L466 427L460 430z"/>
<path style="fill:#b4a09e; stroke:none;" d="M477 427L478 428L477 427z"/>
<path style="fill:#686969; stroke:none;" d="M473 436C475.144 431.967 477.492 429.912 482 429L482 427C471.836 428.132 465.671 446.977 477.961 446.623C486.649 446.374 484.295 430.666 473 436z"/>
<path style="fill:#b4a09e; stroke:none;" d="M482.333 427.667L482.667 428.333L482.333 427.667M334 428L337 431L337 430L334 428M356 428L357 429L356 428M372 428L373 429L372 428M438 428L439 429L438 428M447 428L448 429L447 428M459 428L462 431L462 430L459 428M475 428L476 429L475 428M267 429L268 430L267 429M272.667 429.333L273.333 429.667L272.667 429.333z"/>
<path style="fill:#f5f7fb; stroke:none;" d="M278 444L277 439L281 442C281.507 440.28 281.979 438.804 281.907 436.976C281.241 419.882 258.244 437.701 272.054 443.397C273.89 444.154 276.063 443.977 278 444z"/>
<path style="fill:#b4a09e; stroke:none;" d="M276.667 429.333L277.333 429.667L276.667 429.333M291 429L292 430L291 429M296.667 429.333L297.333 429.667L296.667 429.333z"/>
<path style="fill:#f5f7fb; stroke:none;" d="M302 444L301 439L305 442C305.507 440.28 305.979 438.804 305.907 436.976C305.241 419.882 282.244 437.701 296.054 443.397C297.89 444.154 300.063 443.977 302 444z"/>
<path style="fill:#b4a09e; stroke:none;" d="M300.667 429.333L301.333 429.667L300.667 429.333M349 429L350 430L349 429M354 429L355 430L354 429M365 429L366 430L365 429M370 429L371 430L370 429M383 429L384 430L383 429M404.333 429.667L404.667 430.333L404.333 429.667M420.333 429.667L420.667 430.333L420.333 429.667M431 429L430 431L431 429z"/>
<path style="fill:#f5f7fb; stroke:none;" d="M432.343 430.171C429.401 431.667 431.908 435.538 434.707 434.339C437.771 433.026 435.106 428.766 432.343 430.171z"/>
<path style="fill:#b4a09e; stroke:none;" d="M435 429L436 430L435 429M446 429L447 430L446 429M450 429L451 430L450 429M474 429L475 430L474 429M478 429L479 430L478 429M270 430L271 431L270 430M279 430L280 431L279 430M294 430L295 431L294 430M303 430L304 431L303 430M338 430L338 447L339 447L338 430M348 430L349 431L348 430M357 430L357 434L358 434L357 430M364 430L365 431L364 430M373 430L373 434L374 434L373 430M436 430L437 431L436 430M439 430L439 433L440 433L439 430M445 430L446 431L445 430M448 430L449 431L448 430M463 430L463 447L464 447L463 430M473 430L474 431L473 430M476 430L477 431L476 430M266 431L267 432L266 431M269 431L270 432L269 431M280 431L281 432L280 431M283 431L284 432L283 431M290 431L291 432L290 431M293 431L294 432L293 431M304 431L305 432L304 431M307 431L308 432L307 431M355.333 431.667L355.667 432.333L355.333 431.667M371.333 431.667L371.667 432.333L371.333 431.667M380 431L380 434L381 434L380 431M406 431L407 432L406 431M422 431L423 432L422 431M427.333 431.667L427.667 432.333L427.333 431.667M444 431L445 432L444 431M447 431L448 432L447 431M472 431L473 432L472 431M475 431L476 432L475 431M265.333 432.667L265.667 433.333L265.333 432.667M268 432L269 433L268 432M281 432L282 433L281 432M289.333 432.667L289.667 433.333L289.333 432.667M292 432L293 433L292 432M305 432L306 433L305 432M316 435L317 435L319 435C320.622 431.895 316.763 431.439 316 435M346.667 432.333L347.333 432.667L346.667 432.333M362.667 432.333L363.333 432.667L362.667 432.333M382 432L382 436L383 436L382 432M403 432L404 433L403 432M419 432L420 433L419 432M446 432L447 433L446 432M474 432L475 433L474 432M284 433L285 434L284 433M308 433L309 434L308 433z"/>
<path style="fill:#686969; stroke:none;" d="M317 433L317 435L319 435L319 433L317 433z"/>
<path style="fill:#b4a09e; stroke:none;" d="M405 433L406 434L405 433M421 433L422 434L421 433M430 433L431 434L430 433M443 433L444 434L443 433M471 433L472 434L471 433M267 434L267 440L268 440L267 434M291 434L291 440L292 440L291 434M354 434L355 435L354 434M370 434L371 435L370 434M384 434L384 435L388 435L384 434M402 434L403 435L402 434M418 434L419 435L418 434M428 434L429 435L428 434M438 434L439 435L438 434M445.333 434.667L445.667 435.333L445.333 434.667M447 434L448 435L447 434M452 434L453 435L452 434M473.333 434.667L473.667 435.333L473.333 434.667M475 434L476 435L475 434M480 434L481 435L480 434M282 435L282 439L283 439L282 435M306 435L306 439L307 439L306 435M356 435L357 436L356 435M372 435L373 436L372 435M389 435L390 436L389 435M404 435L405 436L404 435M420 435L421 436L420 435M429.333 435.667L429.667 436.333L429.333 435.667M432 435L432 436L435 436L432 435M437.333 435.667L437.667 436.333L437.333 435.667M454 435L455 436L454 435M482 435L483 436L482 435M353 436L354 437L353 436M369 436L370 437L369 436M384 436L384 437L387 437L384 436M390 436L391 437L390 436M447 436L448 437L447 436z"/>
<path style="fill:#f5f7fb; stroke:none;" d="M448.299 436.851C444.437 438.333 446.746 445.75 450.701 443.824C454.343 442.051 452.643 435.184 448.299 436.851z"/>
<path style="fill:#b4a09e; stroke:none;" d="M451 436L452 437L451 436M475 436L476 437L475 436z"/>
<path style="fill:#f5f7fb; stroke:none;" d="M476.299 436.851C472.437 438.333 474.746 445.75 478.701 443.824C482.343 442.051 480.643 435.184 476.299 436.851z"/>
<path style="fill:#b4a09e; stroke:none;" d="M479 436L480 437L479 436M352 437L353 438L352 437M368 437L369 438L368 437M380 437L381 438L380 437M382 437L383 438L382 437M388 437L389 438L388 437M391.333 437.667L391.667 438.333L391.333 437.667M401 437L402 438L401 437M417 437L418 438L417 437M428 437L429 438L428 437M430 438L430 439C433.995 438.341 435.798 439.048 437 443C438.6 437.967 434.007 436.942 430 438M438 437L439 438L438 437M442 437L442 440L443 440L442 437M455 437L456 438L455 437M470 437L470 440L471 440L470 437M483 437L484 438L483 437M351 438L352 439L351 438M354 438L355 439L354 438M367 438L368 439L367 438M370 438L371 439L370 438M403 438L404 439L403 438M419 438L420 439L419 438M427 438L428 439L427 438z"/>
<path style="fill:#f5f7fb; stroke:none;" d="M431.603 439.043C428.417 441.419 432.266 446.048 435.397 443.778C438.593 441.46 434.718 436.72 431.603 439.043z"/>
<path style="fill:#b4a09e; stroke:none;" d="M439 438L440 439L439 438M445 438L445 442L446 442L445 438M453 438L453 443L454 443L453 438M473 438L473 442L474 442L473 438M481 438L481 443L482 443L481 438M277 439L278 440L277 439M301 439L302 440L301 439M353 439L354 440L353 439M369 439L370 440L369 439M389 439L389 443L390 443L389 439M400 439L401 440L400 439M416 439L417 440L416 439M265.333 440.667L265.667 441.333L265.333 440.667M278 440L279 441L278 440M284 440L285 441L284 440M289.333 440.667L289.667 441.333L289.333 440.667M302 440L303 441L302 440M308 440L309 441L308 440M352 440L353 441L352 440M368 440L369 441L368 440M402 440L403 441L402 440M418 440L419 441L418 440M429 440L429 443L430 443L429 440M268 441L269 442L268 441M276 441L277 442L276 441M281 441L282 442L281 441M292 441L293 442L292 441M300 441L301 442L300 441M305 441L306 442L305 441M349 441L350 442L349 441M365 441L366 442L365 441M399 441L400 442L399 441M415 441L416 442L415 441M266 442L267 443L266 442M269 442L270 443L269 442M277 442L278 443L277 442M283 442L284 443L283 442M290 442L291 443L290 442M293 442L294 443L293 442M301 442L302 443L301 442M307 442L308 443L307 442M348 442L349 443L348 442M364 442L365 443L364 442M379.667 442.333L380.333 442.667L379.667 442.333M391.333 442.667L391.667 443.333L391.333 442.667M401 442L402 443L401 442M417 442L418 443L417 442M443.333 442.667L443.667 443.333L443.333 442.667M455.333 442.667L455.667 443.333L455.333 442.667M471.333 442.667L471.667 443.333L471.333 442.667M483.333 442.667L483.667 443.333L483.333 442.667M270 443L271 444L270 443M278 443L279 444L278 443M294 443L295 444L294 443M302 443L303 444L302 443M347 443L348 444L347 443M350 443L359 445L359 444L350 443M363 443L364 444L363 443M366 443L375 445L375 444L366 443M381 443L382 444L381 443M388 443L389 444L388 443M398 443L399 444L398 443M414 443L415 444L414 443M427 443L428 444L427 443M439 443L440 444L439 443M446 443L447 444L446 443M452 443L453 444L452 443M474 443L475 444L474 443M480 443L481 444L480 443M272 444L272 445L278 445L272 444M283 444L284 445L283 444M296 444L296 445L302 445L296 444M307 444L308 445L307 444M316 444L316 447L317 447L316 444z"/>
<path style="fill:#686969; stroke:none;" d="M317 444L317 447L319 447L319 444L317 444z"/>
<path style="fill:#b4a09e; stroke:none;" d="M319 444L319 447L320 447L319 444M346 444L347 445L346 444M362 444L363 445L362 444M379 444L380 445L379 444M383 444L384 445L383 444M387 444L388 445L387 444M390 444L391 445L390 444M400.333 444.667L400.667 445.333L400.333 444.667M416.333 444.667L416.667 445.333L416.333 444.667M431 444L432 445L431 444M435 444L436 445L435 444M444 444L445 445L444 444M447 444L448 445L447 444M451 444L452 445L451 444M454 444L455 445L454 444M472 444L473 445L472 444M475 444L476 445L475 444M479 444L480 445L479 444M482 444L483 445L482 444M269 445L270 446L269 445M280 445L281 446L280 445M284.333 445.667L284.667 446.333L284.333 445.667M293 445L294 446L293 445M304 445L305 446L304 445M308.333 445.667L308.667 446.333L308.333 445.667M380 445L381 446L380 445M389 445L390 446L389 445M428 445L429 446L428 445M438 445L439 446L438 445M445 445L446 446L445 445M473 445L474 446L473 445M270.667 446.333L271.333 446.667L270.667 446.333M278 446L279 447L278 446M294.667 446.333L295.333 446.667L294.667 446.333M302 446L303 447L302 446M382 446L383 447L382 446M388 446L389 447L388 446M397 446L398 447L397 446M413 446L414 447L413 446M430 446L431 447L430 446M436 446L437 447L436 446M446 446L447 447L446 446M452 446L453 447L452 446M474 446L475 447L474 446M480 446L481 447L480 446M283 447L284 448L283 447M307 447L308 448L307 447z"/>
<path style="fill:#010101; stroke:none;" d="M155 487L155 580L248 580L248 487L155 487M315 487L315 500L328 500L328 514L315 514L315 527L302 527L302 500L288 500L288 514L275 514L275 527L262 527L262 554L315 554L315 580L302 580L302 567L288 567L288 580L302 580L302 594L315 594L315 607L288 607L288 594L275 594L275 620L288 620L288 634L275 634L275 660L262 660L262 634L248 634L248 620L235 620L235 607L262 607L262 594L222 594L222 620L235 620L235 634L248 634L248 647L222 647L222 634L208 634L208 660L195 660L195 674L182 674L182 687L168 687L168 674L155 674L155 714L168 714L168 740L155 740L155 754L168 754L168 767L155 767L155 820L222 820L222 794L248 794L248 780L208 780L208 740L182 740L182 700L195 700L195 714L208 714L208 727L235 727L235 740L248 740L248 754L222 754L222 767L262 767L262 780L275 780L275 794L262 794L262 807L235 807L235 820L262 820L262 860L275 860L275 834L288 834L288 887L275 887L275 900L262 900L262 927L275 927L275 900L288 900L288 887L302 887L302 914L288 914L288 927L368 927L368 914L382 914L382 927L395 927L395 914L422 914L422 927L515 927L515 914L502 914L502 874L515 874L515 887L528 887L528 927L542 927L542 887L555 887L555 914L568 914L568 927L582 927L582 914L568 914L568 887L555 887L555 874L542 874L542 860L568 860L568 874L595 874L595 847L582 847L582 834L595 834L595 820L582 820L582 807L568 807L568 794L582 794L582 754L568 754L568 740L555 740L555 754L568 754L568 794L555 794L555 767L542 767L542 754L528 754L528 767L515 767L515 780L542 780L542 807L515 807L515 794L488 794L488 807L475 807L475 834L462 834L462 794L448 794L448 820L422 820L422 794L435 794L435 780L475 780L475 767L502 767L502 754L515 754L515 740L488 740L488 727L475 727L475 714L488 714L488 700L515 700L515 714L502 714L502 727L515 727L515 714L542 714L542 727L528 727L528 740L542 740L542 727L555 727L555 714L542 714L542 700L528 700L528 687L542 687L542 674L528 674L528 647L515 647L515 620L528 620L528 634L555 634L555 647L568 647L568 687L555 687L555 700L568 700L568 727L582 727L582 740L595 740L595 714L582 714L582 700L595 700L595 687L582 687L582 674L595 674L595 647L568 647L568 634L582 634L582 607L555 607L555 594L528 594L528 607L515 607L515 620L488 620L488 594L475 594L475 580L488 580L488 567L475 567L475 580L462 580L462 554L475 554L475 540L462 540L462 487L448 487L448 514L435 514L435 500L422 500L422 514L408 514L408 527L435 527L435 540L408 540L408 554L422 554L422 580L408 580L408 567L395 567L395 580L408 580L408 594L422 594L422 607L395 607L395 594L368 594L368 580L382 580L382 567L368 567L368 580L355 580L355 567L342 567L342 607L355 607L355 594L368 594L368 607L382 607L382 634L395 634L395 660L382 660L382 674L395 674L395 700L382 700L382 714L368 714L368 700L342 700L342 714L328 714L328 727L355 727L355 740L342 740L342 754L315 754L315 767L302 767L302 754L288 754L288 767L275 767L275 740L248 740L248 727L262 727L262 714L275 714L275 727L288 727L288 740L315 740L315 714L302 714L302 700L328 700L328 674L355 674L355 687L368 687L368 620L355 620L355 634L342 634L342 620L328 620L328 634L315 634L315 660L302 660L302 674L315 674L315 687L275 687L275 660L288 660L288 634L302 634L302 620L315 620L315 607L328 607L328 594L315 594L315 580L328 580L328 554L342 554L342 540L328 540L328 554L315 554L315 527L328 527L328 514L342 514L342 527L368 527L368 540L355 540L355 554L382 554L382 540L395 540L395 527L368 527L368 514L382 514L382 500L368 500L368 514L342 514L342 487L315 487M395 487L395 500L408 500L408 487L395 487M502 487L502 580L595 580L595 487L502 487z"/>
<path style="fill:#f5f7fb; stroke:none;" d="M168 500L168 567L235 567L235 500L168 500M515 500L515 567L582 567L582 500L515 500z"/>
<path style="fill:#010101; stroke:none;" d="M182 514L182 554L222 554L222 514L182 514M475 514L475 527L488 527L488 514L475 514M528 514L528 554L568 554L568 514L528 514z"/>
<path style="fill:#f5f7fb; stroke:none;" d="M435 540L435 554L462 554L462 540L435 540z"/>
<path style="fill:#010101; stroke:none;" d="M262 567L262 580L275 580L275 567L262 567z"/>
<path style="fill:#f5f7fb; stroke:none;" d="M435 567L435 580L422 580L422 594L435 594L435 607L422 607L422 620L408 620L408 634L422 634L422 647L408 647L408 660L395 660L395 674L408 674L408 700L395 700L395 714L382 714L382 727L368 727L368 714L355 714L355 727L368 727L368 740L355 740L355 754L342 754L342 767L315 767L315 780L288 780L288 794L275 794L275 807L262 807L262 820L275 820L275 807L288 807L288 834L302 834L302 847L315 847L315 860L342 860L342 874L315 874L315 887L328 887L328 900L315 900L315 914L355 914L355 887L368 887L368 874L408 874L408 860L395 860L395 847L435 847L435 860L422 860L422 874L435 874L435 887L448 887L448 900L435 900L435 914L488 914L488 887L475 887L475 900L462 900L462 887L448 887L448 874L435 874L435 860L462 860L462 874L475 874L475 847L435 847L435 834L395 834L395 820L408 820L408 807L395 807L395 780L408 780L408 794L422 794L422 780L435 780L435 767L448 767L448 740L462 740L462 727L435 727L435 714L462 714L462 700L475 700L475 687L488 687L488 674L502 674L502 647L488 647L488 634L475 634L475 620L462 620L462 607L448 607L448 567L435 567z"/>
<path style="fill:#010101; stroke:none;" d="M155 594L155 620L168 620L168 607L182 607L182 594L155 594z"/>
<path style="fill:#f5f7fb; stroke:none;" d="M542 607L542 620L555 620L555 634L568 634L568 620L555 620L555 607L542 607z"/>
<path style="fill:#010101; stroke:none;" d="M435 620L435 634L448 634L448 647L475 647L475 660L448 660L448 674L475 674L475 660L488 660L488 647L475 647L475 634L448 634L448 620L435 620z"/>
<path style="fill:#f5f7fb; stroke:none;" d="M328 634L328 647L342 647L342 660L355 660L355 647L342 647L342 634L328 634z"/>
<path style="fill:#010101; stroke:none;" d="M422 647L422 660L408 660L408 674L422 674L422 714L395 714L395 727L382 727L382 740L395 740L395 727L408 727L408 754L422 754L422 767L408 767L408 780L422 780L422 767L435 767L435 727L422 727L422 714L435 714L435 647L422 647z"/>
<path style="fill:#f5f7fb; stroke:none;" d="M208 660L208 674L195 674L195 687L222 687L222 700L248 700L248 714L235 714L235 727L248 727L248 714L262 714L262 674L248 674L248 660L208 660M315 660L315 674L328 674L328 660L315 660z"/>
<path style="fill:#010101; stroke:none;" d="M222 674L222 687L248 687L248 674L222 674M448 687L448 700L462 700L462 687L448 687z"/>
<path style="fill:#f5f7fb; stroke:none;" d="M568 687L568 700L582 700L582 687L568 687M275 700L275 714L288 714L288 700L275 700M168 740L168 754L182 754L182 740L168 740z"/>
<path style="fill:#010101; stroke:none;" d="M355 754L355 780L315 780L315 794L302 794L302 834L315 834L315 794L342 794L342 807L328 807L328 820L342 820L342 807L355 807L355 794L368 794L368 820L355 820L355 847L342 847L342 834L328 834L328 847L342 847L342 860L382 860L382 847L395 847L395 834L382 834L382 780L368 780L368 754L355 754z"/>
<path style="fill:#f5f7fb; stroke:none;" d="M462 754L462 767L475 767L475 754L462 754M168 780L168 807L208 807L208 794L195 794L195 780L168 780M542 807L542 834L555 834L555 820L568 820L568 834L582 834L582 820L568 820L568 807L542 807M488 820L488 860L528 860L528 820L488 820z"/>
<path style="fill:#010101; stroke:none;" d="M155 834L155 927L248 927L248 834L155 834z"/>
<path style="fill:#f5f7fb; stroke:none;" d="M368 834L368 847L382 847L382 834L368 834z"/>
<path style="fill:#010101; stroke:none;" d="M502 834L502 847L515 847L515 834L502 834z"/>
<path style="fill:#f5f7fb; stroke:none;" d="M168 847L168 914L235 914L235 847L168 847z"/>
<path style="fill:#010101; stroke:none;" d="M182 860L182 900L222 900L222 860L182 860z"/>
<path style="fill:#f5f7fb; stroke:none;" d="M382 887L382 914L395 914L395 887L382 887z"/>
<path style="fill:#010101; stroke:none;" d="M582 887L582 900L595 900L595 887L582 887z"/>
<path style="fill:#b4a09e; stroke:none;" d="M196 949L200 957L201 957L196 949M252 949L256 957L257 957L252 949M308 949L309 950L308 949M316 949L315 951L316 949M385 949L384 953L385 953L385 949M422 949L422 950L424 957L425 957L422 949M488 949L488 950L491 951L488 949M520 951L523 950L520 951z"/>
<path style="fill:#686969; stroke:none;" d="M195 950L195 954L196 954L195 950z"/>
<path style="fill:#010101; stroke:none;" d="M196 950L192 955L192 956C196.921 958.747 194.348 961.27 192 965L195 964C195.946 968.179 195.953 970.818 192 973L192 974C197.842 973.025 197.687 965.818 200 961C196.159 960.495 197.763 957.759 200 956L200 955L197 955L196 950z"/>
<path style="fill:#686969; stroke:none;" d="M251 950L251 954L252 954L251 950z"/>
<path style="fill:#010101; stroke:none;" d="M252 950L248 955L248 956C252.921 958.747 250.348 961.27 248 965L251 964C251.946 968.179 251.953 970.818 248 973L248 974C253.842 973.025 253.687 965.818 256 961C252.159 960.495 253.763 957.759 256 956L256 955L253 955L252 950z"/>
<path style="fill:#686969; stroke:none;" d="M308 950L309 951L308 950z"/>
<path style="fill:#010101; stroke:none;" d="M309 950L304 960L308 960L305 967L311 966L311 965L307 965L312 956L306 958L309 950z"/>
<path style="fill:#b4a09e; stroke:none;" d="M310 950L311 951L310 950z"/>
<path style="fill:#010101; stroke:none;" d="M316 950L312 961C315.612 961 314 970.793 314 974L328 973L328 972L323 967L327 967L327 966L323 966L323 961L327 961L327 960L323 960L323 956L328 956L328 955L322 950L321 950L322 955L316 954L318 950L316 950z"/>
<path style="fill:#686969; stroke:none;" d="M320 950L321 951L320 950z"/>
<path style="fill:#b4a09e; stroke:none;" d="M322 950L323 951L322 950z"/>
<path style="fill:#010101; stroke:none;" d="M385 950L381 955L381 956C387.487 959.667 382.525 968.412 381 974L382 974C384.031 970.393 384.638 959.991 387.541 957.921C391.123 955.368 390 970.148 390 972L386 972L386 974C394.474 972.617 392 961.57 392 955L385 950z"/>
<path style="fill:#686969; stroke:none;" d="M386.333 950.667L386.667 951.333L386.333 950.667z"/>
<path style="fill:#010101; stroke:none;" d="M422 950C422.497 955.27 421.572 957.575 416 958L419 951L410 952L410 953L414 953L414 958L409 958L409 959L414 959L409 967L414 966L410 973L410 974C416.005 973.532 417.064 967.656 420 963L416 964L416 959L423 959C423.067 964.749 423.003 967.606 418 971L418 972L425 970C428.139 975.103 431.883 973.356 433 968L432 968L430 973C425.531 968.554 428.796 965.879 431 961L425 966L424 960L433 959L433 958C426.817 957.927 424.21 956.443 424 950L422 950M488 950L485 955L485 956L488 957L486 974L491 969L492 969L495 972L494 955L490 955L490 950L488 950M521 950L514 954L514 955L520 955L513 973C521.17 965.996 519.757 961 532 961L526 968L521 962L525 970L518 973L518 974L536 974L529 970L534 960L521 960C523.079 953.152 531.124 955 537 955L537 954C530.812 954 525.476 954.885 521 950z"/>
<path style="fill:#686969; stroke:none;" d="M522.333 950.667L522.667 951.333L522.333 950.667z"/>
<path style="fill:#b4a09e; stroke:none;" d="M307 951L308 952L307 951z"/>
<path style="fill:#686969; stroke:none;" d="M315 951L316 952L315 951M317 951L318 952L317 951z"/>
<path style="fill:#b4a09e; stroke:none;" d="M320 951L321 952L320 951z"/>
<path style="fill:#686969; stroke:none;" d="M322 951L323 952L322 951z"/>
<path style="fill:#b4a09e; stroke:none;" d="M333 951L333 952L341 952L333 951z"/>
<path style="fill:#010101; stroke:none;" d="M343 951L343 953L352 953C351.545 958.011 350.261 961.163 345 962L346 955L344 963L354 963C353.607 967.764 352.926 971.509 348 973L348 974C359.547 973.119 353.001 958.695 353 951L343 951z"/>
<path style="fill:#686969; stroke:none;" d="M353 951L353 955L354 955L353 951z"/>
<path style="fill:#b4a09e; stroke:none;" d="M410 951L410 952L414 952L410 951z"/>
<path style="fill:#686969; stroke:none;" d="M414 951L414 952L417 952L414 951M419.333 951.667L419.667 952.333L419.333 951.667z"/>
<path style="fill:#b4a09e; stroke:none;" d="M426 951L430 956L426 951z"/>
<path style="fill:#010101; stroke:none;" d="M427 951L431 955L427 951z"/>
<path style="fill:#b4a09e; stroke:none;" d="M428 951L429 952L428 951M445 951L445 952L449 952L445 951M469 951L469 952L473 952L469 951M496 951L497 952L496 951z"/>
<path style="fill:#686969; stroke:none;" d="M496 952L496 953L509 953C505.261 950.167 500.345 950.716 496 952z"/>
<path style="fill:#b4a09e; stroke:none;" d="M508 951L509 952L508 951z"/>
<path style="fill:#686969; stroke:none;" d="M520.333 951.667L520.667 952.333L520.333 951.667z"/>
<path style="fill:#b4a09e; stroke:none;" d="M201.333 952.667L201.667 953.333L201.333 952.667z"/>
<path style="fill:#010101; stroke:none;" d="M202 952L202 954L213 954L213 961L202 961L202 963L213 963L213 971L201 971L201 973L215 974L215 952L202 952z"/>
<path style="fill:#b4a09e; stroke:none;" d="M257.333 952.667L257.667 953.333L257.333 952.667z"/>
<path style="fill:#010101; stroke:none;" d="M258 952L258 954L269 954L269 961L258 961L258 963L269 963L269 971L257 971L257 973L271 974L271 952L258 952z"/>
<path style="fill:#686969; stroke:none;" d="M307 952L308 953L307 952z"/>
<path style="fill:#b4a09e; stroke:none;" d="M309 952L310 953L309 952M317 952L318 953L317 952z"/>
<path style="fill:#686969; stroke:none;" d="M321 952L322 953L321 952z"/>
<path style="fill:#b4a09e; stroke:none;" d="M323 952L324 953L323 952z"/>
<path style="fill:#686969; stroke:none;" d="M332 952L332 953L336 954L336 953L332 952z"/>
<path style="fill:#010101; stroke:none;" d="M333 952L333 953L336 953L332 964C335.441 964 334 970.121 334 973L339 973L340 973L340 960L336 960L341 953L333 952z"/>
<path style="fill:#686969; stroke:none;" d="M341 952L338 953L338 954L342 953L341 952z"/>
<path style="fill:#b4a09e; stroke:none;" d="M386.333 952.667L386.667 953.333L386.333 952.667M409.333 952.667L409.667 953.333L409.333 952.667M429 952L430 953L429 952M442 952L443 953L442 952z"/>
<path style="fill:#686969; stroke:none;" d="M443 952L444 953L443 952z"/>
<path style="fill:#010101; stroke:none;" d="M456 972C455.629 967.689 457.637 963.199 456.343 959.015C451.195 942.371 427.15 960.059 441.214 969.991C445.643 973.119 451.067 970.8 456 972z"/>
<path style="fill:#686969; stroke:none;" d="M450 952L451 953L450 952z"/>
<path style="fill:#b4a09e; stroke:none;" d="M451 952L452 953L451 952M466 952L467 953L466 952z"/>
<path style="fill:#686969; stroke:none;" d="M467 952L468 953L467 952z"/>
<path style="fill:#010101; stroke:none;" d="M480 972C479.629 967.689 481.637 963.199 480.343 959.015C475.195 942.371 451.15 960.059 465.214 969.991C469.643 973.119 475.067 970.8 480 972z"/>
<path style="fill:#686969; stroke:none;" d="M474 952L475 953L474 952z"/>
<path style="fill:#b4a09e; stroke:none;" d="M475 952L476 953L475 952z"/>
<path style="fill:#010101; stroke:none;" d="M497 952L497 953L506 953C502.344 957.261 501.088 961.536 495 962L495 963L502 963C501.985 967.355 502.356 971.89 497 972C501.801 977.413 503.461 963.883 509 963L509 962C501.915 960.856 505.978 956.483 508 952L497 952z"/>
<path style="fill:#b4a09e; stroke:none;" d="M522 952L523 953L522 952z"/>
<path style="fill:#010101; stroke:none;" d="M278 953L278 955L298 955L298 953L278 953z"/>
<path style="fill:#b4a09e; stroke:none;" d="M306 953L307 954L306 953z"/>
<path style="fill:#686969; stroke:none;" d="M308 953L309 954L308 953z"/>
<path style="fill:#b4a09e; stroke:none;" d="M314 953L315 954L314 953z"/>
<path style="fill:#686969; stroke:none;" d="M316 953L317 954L316 953z"/>
<path style="fill:#b4a09e; stroke:none;" d="M321 953L322 954L321 953z"/>
<path style="fill:#686969; stroke:none;" d="M323 953L324 954L323 953z"/>
<path style="fill:#b4a09e; stroke:none;" d="M332 953L333 954L332 953M341 953L342 954L341 953M351.333 953.667L351.667 954.333L351.333 953.667z"/>
<path style="fill:#686969; stroke:none;" d="M384 953L385 954L384 953z"/>
<path style="fill:#010101; stroke:none;" d="M395 953L395 974L397 971L404 974L404 953L395 953z"/>
<path style="fill:#686969; stroke:none;" d="M410 953L410 954L414 954L410 953z"/>
<path style="fill:#b4a09e; stroke:none;" d="M416 953L417 954L416 953z"/>
<path style="fill:#686969; stroke:none;" d="M422 953L422 957L423 957L422 953M430 953L431 954L430 953z"/>
<path style="fill:#b4a09e; stroke:none;" d="M440 953L441 954L440 953z"/>
<path style="fill:#686969; stroke:none;" d="M452 953L453 954L452 953z"/>
<path style="fill:#b4a09e; stroke:none;" d="M464 953L465 954L464 953z"/>
<path style="fill:#686969; stroke:none;" d="M476 953L477 954L476 953z"/>
<path style="fill:#b4a09e; stroke:none;" d="M487 953L488 954L487 953M496 953L496 954L505 955L496 953z"/>
<path style="fill:#686969; stroke:none;" d="M505 953L506 954L505 953z"/>
<path style="fill:#b4a09e; stroke:none;" d="M508 953L509 954L508 953M513 953L514 954L513 953z"/>
<path style="fill:#686969; stroke:none;" d="M514 953L514 954L520 954L514 953M523 953L523 954L537 954L523 953z"/>
<path style="fill:#b4a09e; stroke:none;" d="M192 954L192 955L195 955L192 954z"/>
<path style="fill:#686969; stroke:none;" d="M197 954L198 955L197 954z"/>
<path style="fill:#b4a09e; stroke:none;" d="M212 954L212 961L213 961L212 954M248 954L248 955L251 955L248 954z"/>
<path style="fill:#686969; stroke:none;" d="M253 954L254 955L253 954z"/>
<path style="fill:#b4a09e; stroke:none;" d="M268 954L268 961L269 961L268 954z"/>
<path style="fill:#686969; stroke:none;" d="M306 954L307 955L306 954z"/>
<path style="fill:#b4a09e; stroke:none;" d="M308 954L309 955L308 954z"/>
<path style="fill:#686969; stroke:none;" d="M314 954L315 955L314 954M317 954L317 955L322 955L317 954M324 954L324 955L328 955L324 954z"/>
<path style="fill:#b4a09e; stroke:none;" d="M335 954L336 955L335 954z"/>
<path style="fill:#686969; stroke:none;" d="M337 954L338 955L337 954z"/>
<path style="fill:#b4a09e; stroke:none;" d="M344 954L345 955L344 954z"/>
<path style="fill:#686969; stroke:none;" d="M345 954L346 955L345 954z"/>
<path style="fill:#b4a09e; stroke:none;" d="M381 954L382 955L381 954z"/>
<path style="fill:#686969; stroke:none;" d="M382.667 954.333L383.333 954.667L382.667 954.333M387 954L387 955L392 955L387 954z"/>
<path style="fill:#b4a09e; stroke:none;" d="M431 954L432 955L431 954M439 954L440 955L439 954z"/>
<path style="fill:#686969; stroke:none;" d="M444 954L445 955L444 954z"/>
<path style="fill:#b4a09e; stroke:none;" d="M445 954L445 955L449 955L445 954z"/>
<path style="fill:#686969; stroke:none;" d="M449 954L450 955L449 954z"/>
<path style="fill:#b4a09e; stroke:none;" d="M454 954L455 955L454 954M463 954L464 955L463 954z"/>
<path style="fill:#686969; stroke:none;" d="M468 954L469 955L468 954z"/>
<path style="fill:#b4a09e; stroke:none;" d="M469 954L469 955L473 955L469 954z"/>
<path style="fill:#686969; stroke:none;" d="M473 954L474 955L473 954z"/>
<path style="fill:#b4a09e; stroke:none;" d="M478 954L479 955L478 954z"/>
<path style="fill:#686969; stroke:none;" d="M487 954L488 955L487 954M507 954L508 955L507 954M513 954L514 955L513 954z"/>
<path style="fill:#b4a09e; stroke:none;" d="M305 955L306 956L305 955z"/>
<path style="fill:#686969; stroke:none;" d="M307 955L308 956L307 955z"/>
<path style="fill:#b4a09e; stroke:none;" d="M310.667 955.333L311.333 955.667L310.667 955.333M313 955L314 956L313 955z"/>
<path style="fill:#686969; stroke:none;" d="M335 955L336 956L335 955z"/>
<path style="fill:#b4a09e; stroke:none;" d="M337 955L338 956L337 955z"/>
<path style="fill:#686969; stroke:none;" d="M351 955L351 958L352 958L351 955z"/>
<path style="fill:#b4a09e; stroke:none;" d="M353 955L353 958L354 958L353 955M392 955L392 959L393 959L392 955z"/>
<path style="fill:#f5f7fb; stroke:none;" d="M397 955L397 969L402 969L402 955L397 955z"/>
<path style="fill:#686969; stroke:none;" d="M430 955L431 956L430 955M442 955L440 958L442 955z"/>
<path style="fill:#f5f7fb; stroke:none;" d="M450 969L448 964L453 966C453.497 964.266 453.995 962.824 453.738 960.98C451.529 945.147 429.927 964.607 444.995 968.682C446.59 969.114 448.369 968.981 450 969z"/>
<path style="fill:#686969; stroke:none;" d="M451 955L452 956L451 955M466 955L464 958L466 955z"/>
<path style="fill:#f5f7fb; stroke:none;" d="M474 969L472 964L477 966C477.497 964.266 477.995 962.824 477.738 960.98C475.529 945.147 453.927 964.607 468.995 968.682C470.59 969.114 472.369 968.981 474 969z"/>
<path style="fill:#686969; stroke:none;" d="M475 955L476 956L475 955M494 955L494 959L495 959L494 955z"/>
<path style="fill:#b4a09e; stroke:none;" d="M503 955L504 956L503 955z"/>
<path style="fill:#686969; stroke:none;" d="M506 955L507 956L506 955z"/>
<path style="fill:#b4a09e; stroke:none;" d="M513 955L513 956L520 957L513 955z"/>
<path style="fill:#686969; stroke:none;" d="M519 955L520 956L519 955z"/>
<path style="fill:#b4a09e; stroke:none;" d="M522 955L522 956L537 956L522 955z"/>
<path style="fill:#686969; stroke:none;" d="M192 956L192 957L195 957L192 956M198.667 956.333L199.333 956.667L198.667 956.333M248 956L248 957L251 957L248 956M254.667 956.333L255.333 956.667L254.667 956.333M313 956L314 957L313 956z"/>
<path style="fill:#f5f7fb; stroke:none;" d="M316 956L316 960L321 960L321 956L316 956z"/>
<path style="fill:#b4a09e; stroke:none;" d="M381 956L381 957L384 957L381 956M387 956L387 957L390 957L387 956z"/>
<path style="fill:#686969; stroke:none;" d="M438 956L439 957L438 956M452 956L453 957L452 956M455 956L456 957L455 956M462 956L463 957L462 956M476 956L477 957L476 956M479 956L480 957L479 956M485.667 956.333L486.333 956.667L485.667 956.333M490.667 956.333L491.333 956.667L490.667 956.333z"/>
<path style="fill:#b4a09e; stroke:none;" d="M502 956L503 957L502 956z"/>
<path style="fill:#686969; stroke:none;" d="M505 956L506 957L505 956M521 956L522 957L521 956M195 957L195 962L196 962L195 957z"/>
<path style="fill:#b4a09e; stroke:none;" d="M197 957L197 961L198 961L197 957z"/>
<path style="fill:#686969; stroke:none;" d="M251 957L251 962L252 962L251 957z"/>
<path style="fill:#b4a09e; stroke:none;" d="M253 957L253 961L254 961L253 957z"/>
<path style="fill:#686969; stroke:none;" d="M304 957L305 958L304 957z"/>
<path style="fill:#b4a09e; stroke:none;" d="M306 957L307 958L306 957z"/>
<path style="fill:#686969; stroke:none;" d="M309 957L310 958L309 957M311 957L313 959L311 957z"/>
<path style="fill:#b4a09e; stroke:none;" d="M312 957L313 958L312 957M334 957L335 958L334 957z"/>
<path style="fill:#686969; stroke:none;" d="M336 957L337 958L336 957M345 957L345 960L346 960L345 957M384 957L384 961L385 961L384 957z"/>
<path style="fill:#b4a09e; stroke:none;" d="M386 957L386 961L387 961L386 957z"/>
<path style="fill:#686969; stroke:none;" d="M390 957L390 961L391 961L390 957z"/>
<path style="fill:#b4a09e; stroke:none;" d="M408.333 957.667L408.667 958.333L408.333 957.667z"/>
<path style="fill:#686969; stroke:none;" d="M409 957L409 958L414 958L409 957M416 957L416 958L422 958L416 957M425 957L425 958L433 958L425 957z"/>
<path style="fill:#b4a09e; stroke:none;" d="M433.333 957.667L433.667 958.333L433.333 957.667M437 957L438 958L437 957z"/>
<path style="fill:#686969; stroke:none;" d="M453 957L454 958L453 957z"/>
<path style="fill:#b4a09e; stroke:none;" d="M456 957L457 958L456 957M461 957L462 958L461 957z"/>
<path style="fill:#686969; stroke:none;" d="M477 957L478 958L477 957z"/>
<path style="fill:#b4a09e; stroke:none;" d="M480 957L481 958L480 957z"/>
<path style="fill:#686969; stroke:none;" d="M487 957L488 958L487 957z"/>
<path style="fill:#f5f7fb; stroke:none;" d="M489 957L491 966L492 957L489 957z"/>
<path style="fill:#b4a09e; stroke:none;" d="M492.333 957.667L492.667 958.333L492.333 957.667z"/>
<path style="fill:#686969; stroke:none;" d="M504 957L505 958L504 957M519 957L520 958L519 957z"/>
<path style="fill:#b4a09e; stroke:none;" d="M521.333 957.667L521.667 958.333L521.333 957.667M303 958L304 959L303 958z"/>
<path style="fill:#f5f7fb; stroke:none;" d="M311 958L312 959L311 958z"/>
<path style="fill:#686969; stroke:none;" d="M334 958L335 959L334 958z"/>
<path style="fill:#b4a09e; stroke:none;" d="M336 958L336 959L341 960L341 959L336 958M343 958L343 961L344 961L343 958z"/>
<path style="fill:#686969; stroke:none;" d="M437 958L438 959L437 958z"/>
<path style="fill:#b4a09e; stroke:none;" d="M453 958L454 959L453 958z"/>
<path style="fill:#686969; stroke:none;" d="M456 958L457 959L456 958M461 958L462 959L461 958z"/>
<path style="fill:#b4a09e; stroke:none;" d="M477 958L478 959L477 958z"/>
<path style="fill:#686969; stroke:none;" d="M480 958L481 959L480 958z"/>
<path style="fill:#b4a09e; stroke:none;" d="M501 958L501 961L502 961L501 958z"/>
<path style="fill:#686969; stroke:none;" d="M503 958L503 961L504 961L503 958z"/>
<path style="fill:#b4a09e; stroke:none;" d="M310 959L312 961L312 959L310 959M333 959L334 960L333 959z"/>
<path style="fill:#686969; stroke:none;" d="M336 959L337 960L336 959z"/>
<path style="fill:#b4a09e; stroke:none;" d="M409 959L409 960L414 960L409 959M416 959L416 960L422 963C422.867 959.14 419.061 959.1 416 959z"/>
<path style="fill:#686969; stroke:none;" d="M422 959L423 960L422 959z"/>
<path style="fill:#b4a09e; stroke:none;" d="M425 959L425 960L433 960L425 959z"/>
<path style="fill:#686969; stroke:none;" d="M439.333 959.667L439.667 960.333L439.333 959.667M463.333 959.667L463.667 960.333L463.333 959.667z"/>
<path style="fill:#b4a09e; stroke:none;" d="M486.333 959.667L486.667 960.333L486.333 959.667z"/>
<path style="fill:#686969; stroke:none;" d="M488.333 959.667L488.667 960.333L488.333 959.667M492.333 959.667L492.667 960.333L492.333 959.667z"/>
<path style="fill:#b4a09e; stroke:none;" d="M494.333 959.667L494.667 960.333L494.333 959.667M518 959L519 960L518 959z"/>
<path style="fill:#686969; stroke:none;" d="M521 959L521 960L534 960L521 959z"/>
<path style="fill:#b4a09e; stroke:none;" d="M534 959L534 962L535 962L534 959M219 963L220 963C224.755 959.397 239.245 959.397 244 963C245.147 959.585 220.284 957.01 219 963M307 960L308 961L307 960z"/>
<path style="fill:#686969; stroke:none;" d="M309 960L310 961L309 960z"/>
<path style="fill:#b4a09e; stroke:none;" d="M313 960L314 961L313 960z"/>
<path style="fill:#686969; stroke:none;" d="M327 960L323 961L323 962L328 961L327 960M333 960L334 961L333 960M340 960L340 973L341 973L340 960z"/>
<path style="fill:#b4a09e; stroke:none;" d="M345 960L346 961L345 960z"/>
<path style="fill:#686969; stroke:none;" d="M424.333 960.667L424.667 961.333L424.333 960.667M454 960L454 964L455 964L454 960M478 960L478 964L479 964L478 960M518 960L519 961L518 960M198 961L199 962L198 961M200.333 961.667L200.667 962.333L200.333 961.667z"/>
<path style="fill:#010101; stroke:none;" d="M220 961L220 963L244 963L244 961L220 961z"/>
<path style="fill:#686969; stroke:none;" d="M254 961L255 962L254 961M256.333 961.667L256.667 962.333L256.333 961.667z"/>
<path style="fill:#b4a09e; stroke:none;" d="M309 961L310 962L309 961z"/>
<path style="fill:#686969; stroke:none;" d="M312 961L313 962L312 961M316 961L316 962L321 962L316 961z"/>
<path style="fill:#b4a09e; stroke:none;" d="M327 961L328 962L327 961M332 961L333 962L332 961M336 961L336 962L339 962L336 961z"/>
<path style="fill:#686969; stroke:none;" d="M343.333 961.667L343.667 962.333L343.333 961.667M345 961L345 962L350 962L345 961M353.667 961.333L354.333 961.667L353.667 961.333z"/>
<path style="fill:#b4a09e; stroke:none;" d="M355 961L355 967L356 967L355 961z"/>
<path style="fill:#686969; stroke:none;" d="M429 961L430 962L429 961z"/>
<path style="fill:#b4a09e; stroke:none;" d="M431.333 961.667L431.667 962.333L431.333 961.667M436.333 961.667L436.667 962.333L436.333 961.667M439.333 961.667L439.667 962.333L439.333 961.667M460.333 961.667L460.667 962.333L460.333 961.667M463.333 961.667L463.667 962.333L463.333 961.667z"/>
<path style="fill:#686969; stroke:none;" d="M486 961L487 962L486 961z"/>
<path style="fill:#b4a09e; stroke:none;" d="M488 961L489 962L488 961z"/>
<path style="fill:#686969; stroke:none;" d="M495 961L495 962L501 962L495 961M504 961L504 962L509 962L504 961z"/>
<path style="fill:#b4a09e; stroke:none;" d="M509.333 961.667L509.667 962.333L509.333 961.667z"/>
<path style="fill:#686969; stroke:none;" d="M520 961L521 962L520 961z"/>
<path style="fill:#b4a09e; stroke:none;" d="M521 961L522 962L521 961z"/>
<path style="fill:#686969; stroke:none;" d="M522 961L523 962L522 961z"/>
<path style="fill:#b4a09e; stroke:none;" d="M523 963L532 962C528.911 960.704 525.308 960.359 523 963M193 962L194 963L193 962z"/>
<path style="fill:#686969; stroke:none;" d="M194 962L195 963L194 962z"/>
<path style="fill:#b4a09e; stroke:none;" d="M249 962L250 963L249 962z"/>
<path style="fill:#686969; stroke:none;" d="M250 962L251 963L250 962z"/>
<path style="fill:#b4a09e; stroke:none;" d="M306 962L307 963L306 962z"/>
<path style="fill:#686969; stroke:none;" d="M308 962L309 963L308 962z"/>
<path style="fill:#f5f7fb; stroke:none;" d="M316 962L316 965L321 965L321 962L316 962z"/>
<path style="fill:#686969; stroke:none;" d="M335 962L335 969L336 969L335 962z"/>
<path style="fill:#f5f7fb; stroke:none;" d="M336 962L336 970L339 962L336 962z"/>
<path style="fill:#b4a09e; stroke:none;" d="M428 962L429 963L428 962M457 962L458 963L457 962M481 962L482 963L481 962M517 962L518 963L517 962z"/>
<path style="fill:#f5f7fb; stroke:none;" d="M524 962L526 967L531 962L524 962z"/>
<path style="fill:#686969; stroke:none;" d="M531 962L532 963L531 962z"/>
<path style="fill:#b4a09e; stroke:none;" d="M191.333 963.667L191.667 964.333L191.333 963.667M198.667 963.333L199.333 963.667L198.667 963.333M212 963L212 971L213 971L212 963M247.333 963.667L247.667 964.333L247.333 963.667M254.667 963.333L255.333 963.667L254.667 963.333M268 963L268 971L269 971L268 963M331 963L332 964L331 963z"/>
<path style="fill:#686969; stroke:none;" d="M333 963L334 964L333 963z"/>
<path style="fill:#b4a09e; stroke:none;" d="M344 963L344 964L353 964L344 963z"/>
<path style="fill:#686969; stroke:none;" d="M353 963L353 968L354 968L353 963z"/>
<path style="fill:#b4a09e; stroke:none;" d="M416.667 963.333L417.333 963.667L416.667 963.333z"/>
<path style="fill:#686969; stroke:none;" d="M418 963L419 964L418 963M420.333 963.667L420.667 964.333L420.333 963.667M430 963L431 964L430 963M439.333 963.667L439.667 964.333L439.333 963.667M463.333 963.667L463.667 964.333L463.333 963.667z"/>
<path style="fill:#b4a09e; stroke:none;" d="M491 963L492 964L491 963z"/>
<path style="fill:#686969; stroke:none;" d="M493 963L494 964L493 963z"/>
<path style="fill:#b4a09e; stroke:none;" d="M495 963L495 964L501 964L501 970C503.096 964.824 499.736 963.156 495 963z"/>
<path style="fill:#686969; stroke:none;" d="M501 963L502 964L501 963z"/>
<path style="fill:#b4a09e; stroke:none;" d="M504 963L504 964L509 964L504 963z"/>
<path style="fill:#686969; stroke:none;" d="M517 963L518 964L517 963M519 963L520 964L519 963z"/>
<path style="fill:#b4a09e; stroke:none;" d="M521 963L522 964L521 963z"/>
<path style="fill:#686969; stroke:none;" d="M523 963L524 964L523 963z"/>
<path style="fill:#b4a09e; stroke:none;" d="M533 963L534 964L533 963z"/>
<path style="fill:#686969; stroke:none;" d="M194 964L195 965L194 964z"/>
<path style="fill:#b4a09e; stroke:none;" d="M197 964L197 973L198 973L197 964z"/>
<path style="fill:#686969; stroke:none;" d="M250 964L251 965L250 964z"/>
<path style="fill:#b4a09e; stroke:none;" d="M253 964L253 973L254 973L253 964z"/>
<path style="fill:#686969; stroke:none;" d="M305 964L306 965L305 964z"/>
<path style="fill:#b4a09e; stroke:none;" d="M307 964L308 965L307 964M309 964L309 965L312 965L309 964z"/>
<path style="fill:#686969; stroke:none;" d="M332 964L333 965L332 964z"/>
<path style="fill:#b4a09e; stroke:none;" d="M409.667 964.333L410.333 964.667L409.667 964.333z"/>
<path style="fill:#686969; stroke:none;" d="M411.667 964.333L412.333 964.667L411.667 964.333M429 964L430 965L429 964z"/>
<path style="fill:#b4a09e; stroke:none;" d="M448 964L449 965L448 964z"/>
<path style="fill:#686969; stroke:none;" d="M449 964L450 965L449 964z"/>
<path style="fill:#b4a09e; stroke:none;" d="M472 964L473 965L472 964z"/>
<path style="fill:#686969; stroke:none;" d="M473 964L474 965L473 964z"/>
<path style="fill:#b4a09e; stroke:none;" d="M485 964L486 965L485 964M488 964L489 965L488 964z"/>
<path style="fill:#686969; stroke:none;" d="M491 964L492 965L491 964z"/>
<path style="fill:#b4a09e; stroke:none;" d="M493 964L494 965L493 964z"/>
<path style="fill:#686969; stroke:none;" d="M503 964L503 972L504 972L503 964z"/>
<path style="fill:#b4a09e; stroke:none;" d="M519 964L520 965L519 964M524 964L525 965L524 964z"/>
<path style="fill:#686969; stroke:none;" d="M530 964L531 965L530 964M532 964L533 965L532 964z"/>
<path style="fill:#b4a09e; stroke:none;" d="M192 965L193 966L192 965z"/>
<path style="fill:#686969; stroke:none;" d="M195 965L195 972L196 972L195 965z"/>
<path style="fill:#b4a09e; stroke:none;" d="M248 965L249 966L248 965z"/>
<path style="fill:#686969; stroke:none;" d="M251 965L251 972L252 972L251 965M304 965L305 966L304 965M311 965L312 966L311 965z"/>
<path style="fill:#b4a09e; stroke:none;" d="M316 965L316 966L320 966L316 965z"/>
<path style="fill:#686969; stroke:none;" d="M320 965L321 966L320 965M323 965L324 966L323 965z"/>
<path style="fill:#b4a09e; stroke:none;" d="M324 965L324 966L328 966L324 965M383 965L384 966L383 965z"/>
<path style="fill:#686969; stroke:none;" d="M385.333 965.667L385.667 966.333L385.333 965.667z"/>
<path style="fill:#b4a09e; stroke:none;" d="M408 965L409 966L408 965M417.667 965.333L418.333 965.667L417.667 965.333z"/>
<path style="fill:#686969; stroke:none;" d="M423.333 965.667L423.667 966.333L423.333 965.667M425 965L426 966L425 965M428 965L429 966L428 965M437 965L438 966L437 965M450 965L451 966L450 965z"/>
<path style="fill:#b4a09e; stroke:none;" d="M453 965L452 967L453 965z"/>
<path style="fill:#686969; stroke:none;" d="M456 965L457 966L456 965M461 965L462 966L461 965M474 965L475 966L474 965z"/>
<path style="fill:#b4a09e; stroke:none;" d="M477 965L476 967L477 965z"/>
<path style="fill:#686969; stroke:none;" d="M480 965L481 966L480 965z"/>
<path style="fill:#b4a09e; stroke:none;" d="M486 965L487 966L486 965z"/>
<path style="fill:#686969; stroke:none;" d="M489 965L490 966L489 965M516 965L517 966L516 965M518 965L519 966L518 965z"/>
<path style="fill:#b4a09e; stroke:none;" d="M522 965L523 966L522 965M529 965L530 966L529 965M304 966L305 967L304 966z"/>
<path style="fill:#686969; stroke:none;" d="M307 966L307 967L310 967L307 966z"/>
<path style="fill:#b4a09e; stroke:none;" d="M310.667 966.333L311.333 966.667L310.667 966.333z"/>
<path style="fill:#686969; stroke:none;" d="M327 966L328 967L327 966z"/>
<path style="fill:#b4a09e; stroke:none;" d="M342 966L342 967L352 967L342 966z"/>
<path style="fill:#686969; stroke:none;" d="M383 966L384 967L383 966M410.667 966.333L411.333 966.667L410.667 966.333z"/>
<path style="fill:#b4a09e; stroke:none;" d="M412.667 966.333L413.333 966.667L412.667 966.333z"/>
<path style="fill:#686969; stroke:none;" d="M427 966L428 967L427 966z"/>
<path style="fill:#b4a09e; stroke:none;" d="M437 966L438 967L437 966z"/>
<path style="fill:#686969; stroke:none;" d="M440 966L441 967L440 966M448 966L449 967L448 966M453 966L454 967L453 966z"/>
<path style="fill:#b4a09e; stroke:none;" d="M456 966L457 967L456 966M461 966L462 967L461 966z"/>
<path style="fill:#686969; stroke:none;" d="M464 966L465 967L464 966M472 966L473 967L472 966M477 966L478 967L477 966z"/>
<path style="fill:#b4a09e; stroke:none;" d="M480 966L481 967L480 966z"/>
<path style="fill:#686969; stroke:none;" d="M492 966L493 967L492 966z"/>
<path style="fill:#b4a09e; stroke:none;" d="M518 966L519 967L518 966z"/>
<path style="fill:#686969; stroke:none;" d="M523 966L524 967L523 966M525 966L526 967L525 966z"/>
<path style="fill:#b4a09e; stroke:none;" d="M528 966L529 967L528 966M531 966L532 967L531 966M316 967L316 968L321 968L316 967M323 967L323 968L327 968L323 967z"/>
<path style="fill:#010101; stroke:none;" d="M342 967L342 968L351 968L342 967z"/>
<path style="fill:#686969; stroke:none;" d="M351 967L342 968L342 969L352 968L351 967z"/>
<path style="fill:#b4a09e; stroke:none;" d="M385 967L386 968L385 967z"/>
<path style="fill:#686969; stroke:none;" d="M426 967L427 968L426 967z"/>
<path style="fill:#b4a09e; stroke:none;" d="M431.667 967.333L432.333 967.667L431.667 967.333z"/>
<path style="fill:#686969; stroke:none;" d="M438 967L439 968L438 967M441 967L442 968L441 967M449 967L450 968L449 967M455 967L456 968L455 967M462 967L463 968L462 967M465 967L466 968L465 967M473 967L474 968L473 967M479 967L480 968L479 967z"/>
<path style="fill:#b4a09e; stroke:none;" d="M492 967L493 968L492 967z"/>
<path style="fill:#686969; stroke:none;" d="M515 967L516 968L515 967M517 967L518 968L517 967M526.667 967.333L527.333 967.667L526.667 967.333M530 967L531 968L530 967z"/>
<path style="fill:#b4a09e; stroke:none;" d="M545.667 967.333L546.333 967.667L545.667 967.333z"/>
<path style="fill:#f5f7fb; stroke:none;" d="M316 968L316 971L321 971L321 968L316 968z"/>
<path style="fill:#b4a09e; stroke:none;" d="M351 968L352 969L351 968z"/>
<path style="fill:#686969; stroke:none;" d="M422 968L423 969L422 968z"/>
<path style="fill:#b4a09e; stroke:none;" d="M426 968L427 969L426 968z"/>
<path style="fill:#686969; stroke:none;" d="M431 968L432 969L431 968z"/>
<path style="fill:#b4a09e; stroke:none;" d="M433 968L434 969L433 968z"/>
<path style="fill:#686969; stroke:none;" d="M442 968L443 969L442 968M450 968L451 969L450 968M466 968L467 969L466 968M474 968L475 969L474 968z"/>
<path style="fill:#b4a09e; stroke:none;" d="M493 968L494 969L493 968M514 968L515 969L514 968M517 968L518 969L517 968z"/>
<path style="fill:#686969; stroke:none;" d="M529 968L530 969L529 968z"/>
<path style="fill:#b4a09e; stroke:none;" d="M543 968L544 969L543 968z"/>
<path style="fill:#010101; stroke:none;" d="M544.603 969.082C542.132 970.872 544.918 974.713 547.397 972.918C549.868 971.128 547.082 967.287 544.603 969.082z"/>
<path style="fill:#b4a09e; stroke:none;" d="M548 968L549 969L548 968M276 969L276 970L300 970L276 969M310.667 969.333L311.333 969.667L310.667 969.333M338 969L339 970L338 969M363 969L363 972L364 972L363 969z"/>
<path style="fill:#010101; stroke:none;" d="M364 969L365 974L366 974L366 969L364 969z"/>
<path style="fill:#b4a09e; stroke:none;" d="M366 969L366 973L367 973L366 969z"/>
<path style="fill:#686969; stroke:none;" d="M382 969L383 970L382 969M384 969L385 970L384 969z"/>
<path style="fill:#b4a09e; stroke:none;" d="M397 969L397 970L402 970L397 969M420 969L421 970L420 969z"/>
<path style="fill:#686969; stroke:none;" d="M426 969L427 970L426 969z"/>
<path style="fill:#b4a09e; stroke:none;" d="M439 969L440 970L439 969z"/>
<path style="fill:#686969; stroke:none;" d="M444 969L445 970L444 969z"/>
<path style="fill:#b4a09e; stroke:none;" d="M445 969L445 970L449 970L445 969z"/>
<path style="fill:#686969; stroke:none;" d="M449 969L450 970L449 969M455 969L456 970L455 969z"/>
<path style="fill:#b4a09e; stroke:none;" d="M463 969L464 970L463 969z"/>
<path style="fill:#686969; stroke:none;" d="M468 969L469 970L468 969z"/>
<path style="fill:#b4a09e; stroke:none;" d="M469 969L469 970L473 970L469 969z"/>
<path style="fill:#686969; stroke:none;" d="M473 969L474 970L473 969M479 969L480 970L479 969M488 969L489 970L488 969M491 969L492 970L491 969z"/>
<path style="fill:#b4a09e; stroke:none;" d="M494 969L495 970L494 969z"/>
<path style="fill:#686969; stroke:none;" d="M516 969L517 970L516 969z"/>
<path style="fill:#b4a09e; stroke:none;" d="M524 969L525 970L524 969M529 969L530 970L529 969z"/>
<path style="fill:#686969; stroke:none;" d="M544 969L545 970L544 969z"/>
<path style="fill:#f5f7fb; stroke:none;" d="M545 969L544 970L544 972L545 973L547 973L548 972L548 970L547 969L545 969z"/>
<path style="fill:#686969; stroke:none;" d="M547 969L548 970L547 969z"/>
<path style="fill:#010101; stroke:none;" d="M276 970L276 972L300 972L300 970L276 970z"/>
<path style="fill:#b4a09e; stroke:none;" d="M303 972L306 971L303 972z"/>
<path style="fill:#686969; stroke:none;" d="M306.667 970.333L307.333 970.667L306.667 970.333z"/>
<path style="fill:#010101; stroke:none;" d="M304 971L304 972L312 971L304 971z"/>
<path style="fill:#b4a09e; stroke:none;" d="M384 970L385 971L384 970M389 970L386 971L386 972L390 971L389 970M418 970L419 971L418 970M423.667 970.333L424.333 970.667L423.667 970.333M427 970L428 971L427 970z"/>
<path style="fill:#686969; stroke:none;" d="M441 970L442 971L441 970M452 970L453 971L452 970M456.333 970.667L456.667 971.333L456.333 970.667M465 970L466 971L465 970M476 970L477 971L476 970M480.333 970.667L480.667 971.333L480.333 970.667M487 970L488 971L487 970z"/>
<path style="fill:#b4a09e; stroke:none;" d="M490 970L491 971L490 970z"/>
<path style="fill:#686969; stroke:none;" d="M492 970L493 971L492 970z"/>
<path style="fill:#b4a09e; stroke:none;" d="M495 970L496 971L495 970z"/>
<path style="fill:#686969; stroke:none;" d="M501.333 970.667L501.667 971.333L501.333 970.667M513 970L514 971L513 970z"/>
<path style="fill:#b4a09e; stroke:none;" d="M522 970L523 971L522 970z"/>
<path style="fill:#686969; stroke:none;" d="M523 970L524 971L523 970z"/>
<path style="fill:#b4a09e; stroke:none;" d="M531 970L532 971L531 970M542.333 970.667L542.667 971.333L542.333 970.667M549.333 970.667L549.667 971.333L549.333 970.667M200.333 971.667L200.667 972.333L200.333 971.667M256.333 971.667L256.667 972.333L256.333 971.667z"/>
<path style="fill:#686969; stroke:none;" d="M310.667 971.333L311.333 971.667L310.667 971.333M316 971L316 972L321 972L316 971M324 971L324 972L328 972L324 971z"/>
<path style="fill:#b4a09e; stroke:none;" d="M328.333 971.667L328.667 972.333L328.333 971.667z"/>
<path style="fill:#686969; stroke:none;" d="M336 971L336 972L339 972L336 971z"/>
<path style="fill:#b4a09e; stroke:none;" d="M352 971L353 972L352 971z"/>
<path style="fill:#686969; stroke:none;" d="M381 971L382 972L381 971M383 971L384 972L383 971M389 971L390 972L389 971M391 971L392 972L391 971M397 971L397 972L402 972L397 971z"/>
<path style="fill:#b4a09e; stroke:none;" d="M413 971L414 972L413 971M417 971L418 972L417 971z"/>
<path style="fill:#686969; stroke:none;" d="M421 971L422 972L421 971M425 971L426 972L425 971M427 971L428 972L427 971z"/>
<path style="fill:#b4a09e; stroke:none;" d="M430 971L431 972L430 971z"/>
<path style="fill:#686969; stroke:none;" d="M432 971L433 972L432 971z"/>
<path style="fill:#b4a09e; stroke:none;" d="M442 971L443 972L442 971z"/>
<path style="fill:#686969; stroke:none;" d="M443 971L444 972L443 971M450 971L451 972L450 971z"/>
<path style="fill:#b4a09e; stroke:none;" d="M451 971L452 972L451 971M453 971L454 972L453 971M466 971L467 972L466 971z"/>
<path style="fill:#686969; stroke:none;" d="M467 971L468 972L467 971M474 971L475 972L474 971z"/>
<path style="fill:#b4a09e; stroke:none;" d="M475 971L476 972L475 971M477 971L478 972L477 971z"/>
<path style="fill:#686969; stroke:none;" d="M486 971L487 972L486 971z"/>
<path style="fill:#b4a09e; stroke:none;" d="M489 971L490 972L489 971z"/>
<path style="fill:#686969; stroke:none;" d="M493 971L494 972L493 971z"/>
<path style="fill:#b4a09e; stroke:none;" d="M512 971L513 972L512 971M515 971L516 972L515 971M520 971L521 972L520 971z"/>
<path style="fill:#686969; stroke:none;" d="M525 971L526 972L525 971z"/>
<path style="fill:#b4a09e; stroke:none;" d="M528 971L529 972L528 971z"/>
<path style="fill:#686969; stroke:none;" d="M533 971L534 972L533 971z"/>
<path style="fill:#b4a09e; stroke:none;" d="M534 971L535 972L534 971z"/>
<path style="fill:#686969; stroke:none;" d="M192 972L192 973L195 973L192 972M248 972L248 973L251 973L248 972M304.667 972.333L305.333 972.667L304.667 972.333z"/>
<path style="fill:#b4a09e; stroke:none;" d="M306.667 972.333L307.333 972.667L306.667 972.333z"/>
<path style="fill:#686969; stroke:none;" d="M335 972L334 974L336 974L335 972M347 974L352 973L347 974M354 972L355 973L354 972z"/>
<path style="fill:#b4a09e; stroke:none;" d="M380.333 972.667L380.667 973.333L380.333 972.667M383 972L384 973L383 972M385 972L386 973L385 972M391 972L392 973L391 972z"/>
<path style="fill:#686969; stroke:none;" d="M410 972L410 973L413 973L410 972M418.667 972.333L419.333 972.667L418.667 972.333M429 972L430 973L429 972z"/>
<path style="fill:#b4a09e; stroke:none;" d="M432 972L433 973L432 972M446.667 972.333L447.333 972.667L446.667 972.333z"/>
<path style="fill:#686969; stroke:none;" d="M455 972L456 973L455 972z"/>
<path style="fill:#b4a09e; stroke:none;" d="M470.667 972.333L471.333 972.667L470.667 972.333z"/>
<path style="fill:#686969; stroke:none;" d="M479 972L480 973L479 972M485.333 972.667L485.667 973.333L485.333 972.667z"/>
<path style="fill:#b4a09e; stroke:none;" d="M488 972L489 973L488 972z"/>
<path style="fill:#686969; stroke:none;" d="M499 972L500 973L499 972z"/>
<path style="fill:#b4a09e; stroke:none;" d="M503 972L504 973L503 972M514 972L515 973L514 972M517 972L518 973L517 972z"/>
<path style="fill:#686969; stroke:none;" d="M518 972L519 973L518 972M523 972L524 973L523 972M530 972L531 973L530 972M536.333 972.667L536.667 973.333L536.333 972.667M544 972L545 973L544 972M547 972L548 973L547 972M196 973L197 974L196 973z"/>
<path style="fill:#b4a09e; stroke:none;" d="M212 973L213 974L212 973z"/>
<path style="fill:#686969; stroke:none;" d="M252 973L253 974L252 973z"/>
<path style="fill:#b4a09e; stroke:none;" d="M268 973L269 974L268 973M339.667 973.333L340.333 973.667L339.667 973.333z"/>
<path style="fill:#686969; stroke:none;" d="M353 973L354 974L353 973z"/>
<path style="fill:#b4a09e; stroke:none;" d="M364 973L365 974L364 973z"/>
<path style="fill:#686969; stroke:none;" d="M382 973L383 974L382 973z"/>
<path style="fill:#b4a09e; stroke:none;" d="M390 973L391 974L390 973M415 973L416 974L415 973M426 973L427 974L426 973z"/>
<path style="fill:#686969; stroke:none;" d="M431 973L432 974L431 973z"/>
<path style="fill:#b4a09e; stroke:none;" d="M487 973L488 974L487 973z"/>
<path style="fill:#686969; stroke:none;" d="M502 973L503 974L502 973z"/>
<path style="fill:#b4a09e; stroke:none;" d="M513 973L514 974L513 973z"/>
<path style="fill:#686969; stroke:none;" d="M517 973L519 975L517 973z"/>
<path style="fill:#b4a09e; stroke:none;" d="M521 973L522 974L521 973M532 973L533 974L532 973z"/>
<path style="fill:#686969; stroke:none;" d="M533 973L534 974L533 973z"/>
<path style="fill:#b4a09e; stroke:none;" d="M543 973L544 974L543 973M548 973L549 974L548 973M192 974L192 975L196 975L192 974M213.667 974.333L214.333 974.667L213.667 974.333M248 974L248 975L252 975L248 974M269.667 974.333L270.333 974.667L269.667 974.333z"/>
<path style="fill:#686969; stroke:none;" d="M314.667 974.333L315.333 974.667L314.667 974.333z"/>
<path style="fill:#b4a09e; stroke:none;" d="M347 974L347 975L352 975L347 974z"/>
<path style="fill:#686969; stroke:none;" d="M363 976L366 974L363 976z"/>
<path style="fill:#b4a09e; stroke:none;" d="M381 974L382 975L381 974M395.667 974.333L396.333 974.667L395.667 974.333M402.667 974.333L403.333 974.667L402.667 974.333M410 974L410 975L414 975L410 974M428 974L429 975L428 974z"/>
<path style="fill:#686969; stroke:none;" d="M429 974L430 975L429 974z"/>
<path style="fill:#b4a09e; stroke:none;" d="M430 974L431 975L430 974M486 974L487 975L486 974M497 974L497 975L501 975L497 974M517 974L518 975L517 974M519 974L520 975L519 974M535 974L536 975L535 974M545.667 974.333L546.333 974.667L545.667 974.333M328.667 1064.33L329.333 1064.67L328.667 1064.33z"/>
<path style="fill:#686969; stroke:none;" d="M330 1064L330 1065L338 1065L330 1064z"/>
<path style="fill:#b4a09e; stroke:none;" d="M338.667 1064.33L339.333 1064.67L338.667 1064.33M325 1065L324 1067L325 1065z"/>
<path style="fill:#686969; stroke:none;" d="M325 1067L328 1066L325 1067z"/>
<path style="fill:#010101; stroke:none;" d="M309 1115L314 1110L320 1123L315 1127L353 1127L348 1123L354 1110L359 1115C358.93 1106.57 355.348 1100 353.529 1092C351.3 1082.2 351.993 1069.42 340 1065.65C320.254 1059.45 317.746 1078.72 314.391 1092C312.371 1100 309.023 1106.56 309 1115z"/>
<path style="fill:#686969; stroke:none;" d="M340 1065L341 1066L340 1065z"/>
<path style="fill:#b4a09e; stroke:none;" d="M341 1065L341 1066L344 1067L341 1065z"/>
<path style="fill:#686969; stroke:none;" d="M342 1066L343 1067L342 1066z"/>
<path style="fill:#b4a09e; stroke:none;" d="M322 1067L319 1071L322 1067z"/>
<path style="fill:#686969; stroke:none;" d="M323 1067L324 1068L323 1067M344 1067L349 1074L350 1074L344 1067z"/>
<path style="fill:#b4a09e; stroke:none;" d="M345 1067L346 1068L345 1067z"/>
<path style="fill:#686969; stroke:none;" d="M322 1068L323 1069L322 1068z"/>
<path style="fill:#b4a09e; stroke:none;" d="M346 1068L347 1069L346 1068z"/>
<path style="fill:#686969; stroke:none;" d="M321 1069L322 1070L321 1069z"/>
<path style="fill:#b4a09e; stroke:none;" d="M347 1069L348 1070L347 1069z"/>
<path style="fill:#686969; stroke:none;" d="M320 1070L321 1071L320 1070z"/>
<path style="fill:#b4a09e; stroke:none;" d="M348 1070L349 1071L348 1070z"/>
<path style="fill:#686969; stroke:none;" d="M319 1071L320 1072L319 1071z"/>
<path style="fill:#b4a09e; stroke:none;" d="M318 1072L316 1077L317 1077L318 1072M349 1072L350 1073L349 1072z"/>
<path style="fill:#686969; stroke:none;" d="M318 1073L319 1074L318 1073z"/>
<path style="fill:#b4a09e; stroke:none;" d="M350.333 1073.67L350.667 1074.33L350.333 1073.67z"/>
<path style="fill:#686969; stroke:none;" d="M317 1075L318 1076L317 1075M350 1075L351 1076L350 1075z"/>
<path style="fill:#b4a09e; stroke:none;" d="M385 1075L385 1076L388 1076L385 1075M423 1075L423 1076L426 1076L423 1075M351 1076L352 1077L351 1076M377 1078L377 1079L382 1077L377 1078z"/>
<path style="fill:#686969; stroke:none;" d="M382 1076L382 1077L391 1077L382 1076z"/>
<path style="fill:#b4a09e; stroke:none;" d="M391.667 1076.33L392.333 1076.67L391.667 1076.33M415 1078L415 1079L420 1077L415 1078z"/>
<path style="fill:#686969; stroke:none;" d="M420 1076L420 1077L429 1077L420 1076z"/>
<path style="fill:#b4a09e; stroke:none;" d="M429.667 1076.33L430.333 1076.67L429.667 1076.33z"/>
<path style="fill:#686969; stroke:none;" d="M316.333 1077.67L316.667 1078.33L316.333 1077.67M351.333 1077.67L351.667 1078.33L351.333 1077.67M380 1077L381 1078L380 1077z"/>
<path style="fill:#010101; stroke:none;" d="M401 1114C398.717 1104.25 406.529 1096.4 401.431 1086C387.433 1057.43 351.965 1099.84 379.004 1113.54C385.884 1117.03 393.773 1113.26 401 1114z"/>
<path style="fill:#686969; stroke:none;" d="M392.667 1077.33L393.333 1077.67L392.667 1077.33z"/>
<path style="fill:#b4a09e; stroke:none;" d="M394 1077L395 1078L394 1077z"/>
<path style="fill:#686969; stroke:none;" d="M418 1077L419 1078L418 1077z"/>
<path style="fill:#010101; stroke:none;" d="M439 1114C436.861 1104.85 444.08 1095.73 439.427 1086C425.23 1056.31 389.017 1102.2 418.001 1113.99C424.721 1116.73 432.069 1113.29 439 1114z"/>
<path style="fill:#686969; stroke:none;" d="M430.667 1077.33L431.333 1077.67L430.667 1077.33z"/>
<path style="fill:#b4a09e; stroke:none;" d="M432 1077L433 1078L432 1077z"/>
<path style="fill:#686969; stroke:none;" d="M378 1078L379 1079L378 1078M395 1078L400 1083L395 1078z"/>
<path style="fill:#b4a09e; stroke:none;" d="M396 1078L397 1079L396 1078z"/>
<path style="fill:#686969; stroke:none;" d="M416 1078L417 1079L416 1078M433 1078L439 1084L433 1078z"/>
<path style="fill:#b4a09e; stroke:none;" d="M434 1078L435 1079L434 1078M315 1079L316 1080L315 1079M352.333 1079.67L352.667 1080.33L352.333 1079.67M375 1079L373 1082L375 1079z"/>
<path style="fill:#686969; stroke:none;" d="M376 1079L377 1080L376 1079M384 1079L384 1080L389 1080L384 1079z"/>
<path style="fill:#b4a09e; stroke:none;" d="M397 1079L398 1080L397 1079M413 1079L412 1081L413 1079z"/>
<path style="fill:#686969; stroke:none;" d="M414 1079L415 1080L414 1079M422 1079L422 1080L427 1080L422 1079z"/>
<path style="fill:#b4a09e; stroke:none;" d="M435 1079L436 1080L435 1079z"/>
<path style="fill:#686969; stroke:none;" d="M315.333 1080.67L315.667 1081.33L315.333 1080.67M375 1080L376 1081L375 1080M381.667 1080.33L382.333 1080.67L381.667 1080.33z"/>
<path style="fill:#b4a09e; stroke:none;" d="M383 1080L383 1081L386 1081L383 1080z"/>
<path style="fill:#f5f7fb; stroke:none;" d="M393 1110L389 1103L396 1106L398 1106C399.109 1102.05 400.225 1098.15 399.823 1094C399.592 1091.63 399.036 1089.11 397.86 1087.02C384.766 1063.69 357.8 1105.58 384 1110.98C387.157 1111.63 390.02 1110.98 393 1110z"/>
<path style="fill:#b4a09e; stroke:none;" d="M387 1080L387 1081L390 1081L387 1080z"/>
<path style="fill:#686969; stroke:none;" d="M390.667 1080.33L391.333 1080.67L390.667 1080.33z"/>
<path style="fill:#b4a09e; stroke:none;" d="M398 1080L399 1081L398 1080z"/>
<path style="fill:#686969; stroke:none;" d="M413 1080L414 1081L413 1080M419.667 1080.33L420.333 1080.67L419.667 1080.33z"/>
<path style="fill:#b4a09e; stroke:none;" d="M421 1080L421 1081L428 1081L421 1080z"/>
<path style="fill:#686969; stroke:none;" d="M428.667 1080.33L429.333 1080.67L428.667 1080.33z"/>
<path style="fill:#b4a09e; stroke:none;" d="M436 1080L437 1081L436 1080z"/>
<path style="fill:#686969; stroke:none;" d="M352 1081L352 1084L353 1084L352 1081M374 1081L375 1082L374 1081M379 1081L378 1083L379 1081z"/>
<path style="fill:#b4a09e; stroke:none;" d="M380 1081L381 1082L380 1081M392 1081L393 1082L392 1081z"/>
<path style="fill:#686969; stroke:none;" d="M393 1081L394 1082L393 1081z"/>
<path style="fill:#b4a09e; stroke:none;" d="M399 1081L400 1082L399 1081z"/>
<path style="fill:#686969; stroke:none;" d="M412 1081L413 1082L412 1081M417 1081L416 1083L417 1081z"/>
<path style="fill:#b4a09e; stroke:none;" d="M418 1081L417 1083L418 1081z"/>
<path style="fill:#f5f7fb; stroke:none;" d="M431 1110L427 1103L434 1106L436 1106C438.009 1099.66 439.196 1093.09 435.633 1087.02C431.429 1079.85 420.077 1078.49 414.649 1085.19C404.55 1097.65 415.806 1115.02 431 1110z"/>
<path style="fill:#b4a09e; stroke:none;" d="M430 1081L431 1082L430 1081z"/>
<path style="fill:#686969; stroke:none;" d="M431 1081L432 1082L431 1081z"/>
<path style="fill:#b4a09e; stroke:none;" d="M437 1081L438 1082L437 1081M314 1082L314 1091L315 1091L314 1082z"/>
<path style="fill:#686969; stroke:none;" d="M373 1082L374 1083L373 1082z"/>
<path style="fill:#b4a09e; stroke:none;" d="M379 1082L380 1083L379 1082M394 1082L397 1085L394 1082z"/>
<path style="fill:#686969; stroke:none;" d="M395 1082L396 1083L395 1082M411 1082L412 1083L411 1082z"/>
<path style="fill:#b4a09e; stroke:none;" d="M432 1082L435 1085L432 1082z"/>
<path style="fill:#686969; stroke:none;" d="M433 1082L434 1083L433 1082z"/>
<path style="fill:#b4a09e; stroke:none;" d="M438 1082L439 1083L438 1082M353 1083L353 1092L354 1092L353 1083M372 1083L373 1084L372 1083M377 1083L378 1084L377 1083z"/>
<path style="fill:#686969; stroke:none;" d="M396 1083L397 1084L396 1083M400 1083L401 1084L400 1083z"/>
<path style="fill:#b4a09e; stroke:none;" d="M410 1083L411 1084L410 1083M415 1083L416 1084L415 1083z"/>
<path style="fill:#686969; stroke:none;" d="M434 1083L435 1084L434 1083M372 1084L373 1085L372 1084M376 1084L374 1088L375 1088L376 1084z"/>
<path style="fill:#b4a09e; stroke:none;" d="M401 1084L402 1085L401 1084z"/>
<path style="fill:#686969; stroke:none;" d="M410 1084L411 1085L410 1084z"/>
<path style="fill:#b4a09e; stroke:none;" d="M414 1084L415 1085L414 1084M439 1084L440 1085L439 1084z"/>
<path style="fill:#686969; stroke:none;" d="M371.333 1085.67L371.667 1086.33L371.333 1085.67z"/>
<path style="fill:#b4a09e; stroke:none;" d="M376 1085L377 1086L376 1085M397 1085L398 1086L397 1085z"/>
<path style="fill:#686969; stroke:none;" d="M401 1085L402 1086L401 1085M409.333 1085.67L409.667 1086.33L409.333 1085.67M413 1085L414 1086L413 1085z"/>
<path style="fill:#b4a09e; stroke:none;" d="M435 1085L436 1089L437 1089L435 1085z"/>
<path style="fill:#686969; stroke:none;" d="M439 1085L440 1086L439 1085z"/>
<path style="fill:#b4a09e; stroke:none;" d="M370.333 1086.67L370.667 1087.33L370.333 1086.67M375 1086L376 1087L375 1086z"/>
<path style="fill:#686969; stroke:none;" d="M398 1086L399 1087L398 1086z"/>
<path style="fill:#b4a09e; stroke:none;" d="M402 1086L403 1087L402 1086M413 1086L414 1087L413 1086z"/>
<path style="fill:#686969; stroke:none;" d="M436 1086L437 1087L436 1086z"/>
<path style="fill:#b4a09e; stroke:none;" d="M440 1086L441 1087L440 1086M398 1087L399 1088L398 1087z"/>
<path style="fill:#686969; stroke:none;" d="M402.333 1087.67L402.667 1088.33L402.333 1087.67z"/>
<path style="fill:#b4a09e; stroke:none;" d="M408 1087L409 1088L408 1087z"/>
<path style="fill:#686969; stroke:none;" d="M412 1087L413 1088L412 1087M440.333 1087.67L440.667 1088.33L440.333 1087.67M370.333 1088.67L370.667 1089.33L370.333 1088.67z"/>
<path style="fill:#b4a09e; stroke:none;" d="M374 1088L375 1089L374 1088z"/>
<path style="fill:#686969; stroke:none;" d="M399.333 1088.67L399.667 1089.33L399.333 1088.67M408.333 1088.67L408.667 1089.33L408.333 1088.67z"/>
<path style="fill:#b4a09e; stroke:none;" d="M412 1088L413 1089L412 1088z"/>
<path style="fill:#686969; stroke:none;" d="M437.333 1088.67L437.667 1089.33L437.333 1088.67z"/>
<path style="fill:#b4a09e; stroke:none;" d="M441.333 1088.67L441.667 1089.33L441.333 1088.67z"/>
<path style="fill:#686969; stroke:none;" d="M373.333 1089.67L373.667 1090.33L373.333 1089.67z"/>
<path style="fill:#b4a09e; stroke:none;" d="M403.333 1089.67L403.667 1090.33L403.333 1089.67M407 1089L407 1092L408 1092L407 1089z"/>
<path style="fill:#686969; stroke:none;" d="M411 1089L412 1090L411 1089z"/>
<path style="fill:#b4a09e; stroke:none;" d="M369.333 1090.67L369.667 1091.33L369.333 1090.67M399.333 1090.67L399.667 1091.33L399.333 1090.67M411.333 1090.67L411.667 1091.33L411.333 1090.67M437 1090L438 1091L437 1090z"/>
<path style="fill:#686969; stroke:none;" d="M441 1090L441 1102L442 1102L441 1090M314.333 1091.67L314.667 1092.33L314.333 1091.67z"/>
<path style="fill:#b4a09e; stroke:none;" d="M373 1091L373 1094L374 1094L373 1091z"/>
<path style="fill:#686969; stroke:none;" d="M403.333 1091.67L403.667 1092.33L403.333 1091.67M438 1091L438 1101L439 1101L438 1091z"/>
<path style="fill:#b4a09e; stroke:none;" d="M313.333 1092.67L313.667 1093.33L313.333 1092.67z"/>
<path style="fill:#686969; stroke:none;" d="M353 1092L354 1093L353 1092M369 1092L369 1100L370 1100L369 1092M400 1092L400 1100L401 1100L400 1092M407 1092L407 1100L408 1100L407 1092z"/>
<path style="fill:#b4a09e; stroke:none;" d="M354 1093L355 1094L354 1093M404 1093L404 1099L405 1099L404 1093z"/>
<path style="fill:#686969; stroke:none;" d="M410 1093L410 1100L411 1100L410 1093M313 1094L314 1095L313 1094M354.333 1094.67L354.667 1095.33L354.333 1094.67M372 1094L372 1098L373 1098L372 1094z"/>
<path style="fill:#b4a09e; stroke:none;" d="M312 1095L313 1096L312 1095z"/>
<path style="fill:#686969; stroke:none;" d="M312.333 1096.67L312.667 1097.33L312.333 1096.67z"/>
<path style="fill:#b4a09e; stroke:none;" d="M355 1096L356 1097L355 1096M311.333 1097.67L311.667 1098.33L311.333 1097.67z"/>
<path style="fill:#686969; stroke:none;" d="M355 1097L356 1098L355 1097z"/>
<path style="fill:#b4a09e; stroke:none;" d="M356 1098L357 1099L356 1098M373 1098L373 1101L374 1101L373 1098z"/>
<path style="fill:#686969; stroke:none;" d="M311.333 1099.67L311.667 1100.33L311.333 1099.67M356.333 1099.67L356.667 1100.33L356.333 1099.67M403.333 1099.67L403.667 1100.33L403.333 1099.67z"/>
<path style="fill:#b4a09e; stroke:none;" d="M310.333 1100.67L310.667 1101.33L310.333 1100.67M369.333 1100.67L369.667 1101.33L369.333 1100.67M399.333 1100.67L399.667 1101.33L399.333 1100.67M407 1100L407 1103L408 1103L407 1100M411.333 1100.67L411.667 1101.33L411.333 1100.67M357 1101L358 1102L357 1101z"/>
<path style="fill:#686969; stroke:none;" d="M373.333 1101.67L373.667 1102.33L373.333 1101.67z"/>
<path style="fill:#b4a09e; stroke:none;" d="M403.333 1101.67L403.667 1102.33L403.333 1101.67M437.333 1101.67L437.667 1102.33L437.333 1101.67z"/>
<path style="fill:#686969; stroke:none;" d="M310.333 1102.67L310.667 1103.33L310.333 1102.67M357.333 1102.67L357.667 1103.33L357.333 1102.67M370.333 1102.67L370.667 1103.33L370.333 1102.67z"/>
<path style="fill:#b4a09e; stroke:none;" d="M389 1103L389 1104L393 1103L389 1103z"/>
<path style="fill:#686969; stroke:none;" d="M399.333 1102.67L399.667 1103.33L399.333 1102.67M408.333 1102.67L408.667 1103.33L408.333 1102.67M411 1102L412 1103L411 1102z"/>
<path style="fill:#b4a09e; stroke:none;" d="M427 1103L427 1104L434 1105L427 1103M441.333 1102.67L441.667 1103.33L441.333 1102.67M374 1103L375 1104L374 1103z"/>
<path style="fill:#686969; stroke:none;" d="M390 1103L393 1107L390 1103M393 1103L396 1106L393 1103z"/>
<path style="fill:#b4a09e; stroke:none;" d="M394 1103L395 1104L394 1103z"/>
<path style="fill:#686969; stroke:none;" d="M402.333 1103.67L402.667 1104.33L402.333 1103.67z"/>
<path style="fill:#b4a09e; stroke:none;" d="M412 1103L413 1104L412 1103z"/>
<path style="fill:#686969; stroke:none;" d="M428.333 1103.67L428.667 1104.33L428.333 1103.67M431 1103L432 1104L431 1103M437 1103L438 1104L437 1103z"/>
<path style="fill:#b4a09e; stroke:none;" d="M309 1104L310 1105L309 1104M358.333 1104.67L358.667 1105.33L358.333 1104.67M370.333 1104.67L370.667 1105.33L370.333 1104.67z"/>
<path style="fill:#686969; stroke:none;" d="M374 1104L375 1105L374 1104z"/>
<path style="fill:#b4a09e; stroke:none;" d="M395 1104L396 1105L395 1104M398 1104L399 1105L398 1104M408 1104L409 1105L408 1104z"/>
<path style="fill:#686969; stroke:none;" d="M412 1104L413 1105L412 1104M432 1104L433 1105L432 1104z"/>
<path style="fill:#b4a09e; stroke:none;" d="M436 1104L437 1105L436 1104z"/>
<path style="fill:#686969; stroke:none;" d="M440 1104L441 1105L440 1104M309.333 1105.67L309.667 1106.33L309.333 1105.67M371 1105L373 1108L371 1105z"/>
<path style="fill:#b4a09e; stroke:none;" d="M375 1105L376 1106L375 1105M390 1105L391 1106L390 1105z"/>
<path style="fill:#686969; stroke:none;" d="M398 1105L399 1106L398 1105z"/>
<path style="fill:#b4a09e; stroke:none;" d="M402 1105L403 1106L402 1105z"/>
<path style="fill:#686969; stroke:none;" d="M409 1105L411 1108L409 1105z"/>
<path style="fill:#b4a09e; stroke:none;" d="M413 1105L414 1106L413 1105z"/>
<path style="fill:#686969; stroke:none;" d="M429 1105L431 1107L429 1105M433 1105L434 1106L433 1105M436 1105L437 1106L436 1105z"/>
<path style="fill:#b4a09e; stroke:none;" d="M440 1105L441 1106L440 1105z"/>
<path style="fill:#686969; stroke:none;" d="M358.333 1106.67L358.667 1107.33L358.333 1106.67M375 1106L376 1107L375 1106z"/>
<path style="fill:#b4a09e; stroke:none;" d="M391 1106L392 1107L391 1106z"/>
<path style="fill:#686969; stroke:none;" d="M396 1106L397 1107L396 1106z"/>
<path style="fill:#b4a09e; stroke:none;" d="M397 1106L398 1107L397 1106z"/>
<path style="fill:#686969; stroke:none;" d="M401 1106L402 1107L401 1106M413 1106L414 1107L413 1106z"/>
<path style="fill:#b4a09e; stroke:none;" d="M429 1106L430 1107L429 1106M434 1106L435 1107L434 1106z"/>
<path style="fill:#686969; stroke:none;" d="M435 1106L436 1107L435 1106M439 1106L440 1107L439 1106z"/>
<path style="fill:#b4a09e; stroke:none;" d="M308.333 1107.67L308.667 1108.33L308.333 1107.67M359 1107L359 1110L360 1110L359 1107M371 1107L372 1108L371 1107M376 1107L377 1108L376 1107M392 1107L393 1108L392 1107M401 1107L402 1108L401 1107M409 1107L410 1108L409 1107M414 1107L415 1108L414 1107M430 1107L431 1108L430 1107M439 1107L440 1108L439 1107M372 1108L373 1109L372 1108M377 1108L378 1109L377 1108z"/>
<path style="fill:#686969; stroke:none;" d="M393 1108L394 1109L393 1108M400 1108L401 1109L400 1108z"/>
<path style="fill:#b4a09e; stroke:none;" d="M410 1108L411 1109L410 1108M415 1108L416 1109L415 1108z"/>
<path style="fill:#686969; stroke:none;" d="M431 1108L431 1111L432 1111L431 1108M438 1108L437 1111L438 1111L438 1108M308 1109L308 1116L312 1113L309 1115L308 1109M373 1109L376 1112L373 1109M378 1109L380 1111L378 1109z"/>
<path style="fill:#b4a09e; stroke:none;" d="M379 1109L380 1110L379 1109M393 1109L392 1111L393 1109z"/>
<path style="fill:#686969; stroke:none;" d="M399.333 1109.67L399.667 1110.33L399.333 1109.67M411 1109L415 1113L411 1109M416 1109L417 1110L416 1109z"/>
<path style="fill:#b4a09e; stroke:none;" d="M431 1109L432 1110L431 1109M438 1109L439 1110L438 1109z"/>
<path style="fill:#686969; stroke:none;" d="M313 1110L314 1113L315 1113L313 1110M354 1110L353 1113L354 1113L354 1110M359 1110L358 1116L359 1110z"/>
<path style="fill:#b4a09e; stroke:none;" d="M373 1110L374 1111L373 1110M380.667 1110.33L381.333 1110.67L380.667 1110.33z"/>
<path style="fill:#686969; stroke:none;" d="M393 1110L394 1111L393 1110z"/>
<path style="fill:#b4a09e; stroke:none;" d="M411 1110L412 1111L411 1110z"/>
<path style="fill:#686969; stroke:none;" d="M417 1110L418 1111L417 1110z"/>
<path style="fill:#b4a09e; stroke:none;" d="M418.667 1110.33L419.333 1110.67L418.667 1110.33M430 1110L431 1111L430 1110M313.333 1111.67L313.667 1112.33L313.333 1111.67M354 1111L355 1112L354 1111M374 1111L375 1112L374 1111z"/>
<path style="fill:#686969; stroke:none;" d="M381.667 1111.33L382.333 1111.67L381.667 1111.33z"/>
<path style="fill:#b4a09e; stroke:none;" d="M383 1111L383 1112L386 1112L383 1111M387 1111L387 1112L390 1112L387 1111z"/>
<path style="fill:#686969; stroke:none;" d="M390.667 1111.33L391.333 1111.67L390.667 1111.33z"/>
<path style="fill:#b4a09e; stroke:none;" d="M400 1111L402 1113L400 1111M412 1111L413 1112L412 1111z"/>
<path style="fill:#686969; stroke:none;" d="M419.667 1111.33L420.333 1111.67L419.667 1111.33z"/>
<path style="fill:#b4a09e; stroke:none;" d="M421 1111L421 1112L424 1112L421 1111M425 1111L425 1112L428 1112L425 1111z"/>
<path style="fill:#686969; stroke:none;" d="M428.667 1111.33L429.333 1111.67L428.667 1111.33z"/>
<path style="fill:#b4a09e; stroke:none;" d="M438 1111L440 1113L438 1111z"/>
<path style="fill:#686969; stroke:none;" d="M312 1112L313 1113L312 1112M355 1112L357 1114L355 1112M376 1112L377 1113L376 1112M400 1112L401 1113L400 1112z"/>
<path style="fill:#b4a09e; stroke:none;" d="M413 1112L414 1113L413 1112z"/>
<path style="fill:#686969; stroke:none;" d="M438 1112L439 1113L438 1112z"/>
<path style="fill:#b4a09e; stroke:none;" d="M314.333 1113.67L314.667 1114.33L314.333 1113.67M353.333 1113.67L353.667 1114.33L353.333 1113.67M355 1113L356 1114L355 1113M377 1113L379 1115L377 1113z"/>
<path style="fill:#686969; stroke:none;" d="M378 1113L379 1114L378 1113M392 1114L392 1115L396 1114L392 1114z"/>
<path style="fill:#b4a09e; stroke:none;" d="M396 1113L398 1115L396 1113z"/>
<path style="fill:#686969; stroke:none;" d="M397 1113L398 1114L397 1113M401 1113L398 1114L398 1115L401 1113z"/>
<path style="fill:#b4a09e; stroke:none;" d="M415 1113L417 1115L415 1113z"/>
<path style="fill:#686969; stroke:none;" d="M416 1113L417 1114L416 1113M430 1114L430 1115L434 1114L430 1114z"/>
<path style="fill:#b4a09e; stroke:none;" d="M434 1113L436 1115L434 1113z"/>
<path style="fill:#686969; stroke:none;" d="M435 1113L436 1114L435 1113M439 1113L436 1114L436 1115L439 1113z"/>
<path style="fill:#b4a09e; stroke:none;" d="M311 1114L312 1115L311 1114M356 1114L357 1115L356 1114z"/>
<path style="fill:#686969; stroke:none;" d="M379.667 1114.33L380.333 1114.67L379.667 1114.33z"/>
<path style="fill:#b4a09e; stroke:none;" d="M394 1114L395 1115L394 1114M402 1114L403 1115L402 1114z"/>
<path style="fill:#686969; stroke:none;" d="M417.667 1114.33L418.333 1114.67L417.667 1114.33z"/>
<path style="fill:#b4a09e; stroke:none;" d="M432 1114L433 1115L432 1114M440 1114L441 1115L440 1114M310 1115L311 1116L310 1115z"/>
<path style="fill:#686969; stroke:none;" d="M315 1115L316 1116L315 1115M352 1115L353 1116L352 1115z"/>
<path style="fill:#b4a09e; stroke:none;" d="M357 1115L358 1116L357 1115M380.667 1115.33L381.333 1115.67L380.667 1115.33z"/>
<path style="fill:#686969; stroke:none;" d="M382 1115L382 1116L391 1116L382 1115z"/>
<path style="fill:#b4a09e; stroke:none;" d="M391.667 1115.33L392.333 1115.67L391.667 1115.33M399 1115L399 1116L402 1116L399 1115M418.667 1115.33L419.333 1115.67L418.667 1115.33z"/>
<path style="fill:#686969; stroke:none;" d="M420 1115L420 1116L429 1116L420 1115z"/>
<path style="fill:#b4a09e; stroke:none;" d="M429.667 1115.33L430.333 1115.67L429.667 1115.33M437 1115L437 1116L440 1116L437 1115M308.667 1116.33L309.333 1116.67L308.667 1116.33M315 1116L316 1117L315 1116M352 1116L353 1117L352 1116M358.667 1116.33L359.333 1116.67L358.667 1116.33M384 1116L384 1117L389 1117L384 1116M422 1116L422 1117L427 1117L422 1116z"/>
<path style="fill:#686969; stroke:none;" d="M316 1117L317 1118L316 1117M351 1117L350 1119L351 1117z"/>
<path style="fill:#b4a09e; stroke:none;" d="M316 1118L317 1119L316 1118M351 1118L352 1119L351 1118z"/>
<path style="fill:#686969; stroke:none;" d="M317 1119L318 1124L319 1124L317 1119z"/>
<path style="fill:#b4a09e; stroke:none;" d="M350 1119L351 1120L350 1119M317 1120L318 1121L317 1120z"/>
<path style="fill:#686969; stroke:none;" d="M349 1120L350 1121L349 1120z"/>
<path style="fill:#b4a09e; stroke:none;" d="M318.333 1121.67L318.667 1122.33L318.333 1121.67z"/>
<path style="fill:#686969; stroke:none;" d="M348.333 1121.67L348.667 1122.33L348.333 1121.67z"/>
<path style="fill:#b4a09e; stroke:none;" d="M317 1123L318 1124L317 1123z"/>
<path style="fill:#686969; stroke:none;" d="M349 1123L350 1124L349 1123z"/>
<path style="fill:#b4a09e; stroke:none;" d="M350 1123L351 1124L350 1123M315 1124L316 1125L315 1124z"/>
<path style="fill:#686969; stroke:none;" d="M316 1124L317 1125L316 1124M351 1124L353 1126L351 1124z"/>
<path style="fill:#b4a09e; stroke:none;" d="M352 1124L353 1125L352 1124M314.333 1125.67L314.667 1126.33L314.333 1125.67M353.333 1125.67L353.667 1126.33L353.333 1125.67M315 1127L316 1128L315 1127z"/>
<path style="fill:#686969; stroke:none;" d="M316 1127L316 1128L352 1128C342.44 1123.99 326.387 1127 316 1127z"/>
<path style="fill:#b4a09e; stroke:none;" d="M352 1127L353 1128L352 1127z"/>
</svg>
